<?xml version="1.0" encoding="UTF-8"?>
<svg id="Layer_1" data-name="Layer 1" xmlns="http://www.w3.org/2000/svg" viewBox="0 0 512 521">
  <defs>
    <style>
      .cls-1 {
        fill: #10383d;
      }

      .cls-2 {
        fill: #fbfcab;
      }

      .cls-3 {
        fill: #5b936c;
      }

      .cls-4 {
        fill: #9ad97d;
      }

      .cls-5 {
        fill: #6faa71;
      }

      .cls-6 {
        fill: #0c313d;
      }
    </style>
  </defs>
  <path class="cls-6" d="M510.5,264.1c.09.03.55,1.28,1.5,1v255H0v-173c2.86.33,4.31-2.26,2.5-4.5.08-.12.14-1.3.5-2l3.95-2.8,6.68-15.07c3.89-2.41,3.62,2.37,6.37,3.37.86,1.64,1.64,3.39,2.5,5l.5,1c.36.68.66,1.34,1,2-.12,1.24.5,3.63,2,3.5.34.67.66,1.34,1,2-1.19,1.38.7,4.38,2.5,4.5.24.54.32,1.03.5,1.5l-1,2.99,1.5.51c-.34.94-.99,2.13-1.5,3-.29.49-1.22.31-1.5,2-.1.61.06,1.36,0,2,1.02.07,2.15.14,2.5-1,.4.15.74.4,1,.5-.74,3.32,3.86,2.68,6,3.5.3,2.23-.52,2.86-1.5,4.5-1.35-.2-2.88.28-3.02,1.79-.06.68.52,1.14.52,1.21,0,.54-.68,1.76-.5,1.99,1.08.11,2.02.63,3,1.01v1c.5.23.93-.5,1-.5,1.39,0,2.78.95,4,1.5,0,1.3.41,2.98,2,3-.24,2.04-2.88,5-4.51,6.25.65,1.92,4.51,5.06,5.89,2.63.31-.54.01-1.56.39-2.35,1.01-2.09,2.34-4.27,3.73-6.03h1c2.71,4.73,4.65,9.97,7.75,14.5,3.79-7.05,8.29-14.33,11.75-21.5l2.5-.5c.15.3.32.79.5,1,.07.22.47.4.5.5,1.35,4.62,4.44,10.12,6.74,14.51s4.81,8.26,7.06,12.47c.84,3.08-2.2,4.83-3.3,7.26,6.82,3.21,12.57,1.81,6.51,10.89-.49.73-2.5,1.03-1.27,2.9.28.43,1.13.35,1.26.47.25.23.58,2.24,2.5,1,.62.21,1.41.24,2,.5-.33,1.23,1.16,1.03,1.43,1.81.87,2.5-3.37,6.78-2.42,7.69.29.28,1.72-.03,2.25-.49.85-.74,2.09-4.77,2.75-6,.89-1.67,2.05-3.35,3-5,.83-.03,1.67.04,2.5,0,1.54,3.02,2.44,5.01,4.39,7.85.3.44-.08.92,1.11.65,1.66-3.63,3.2-7.45,5.01-11,1.34-2.64,2.64-5.39,4-8,.17-.32,1.01-1.07,1.5-2,1.79-.43,3.03-2.15,5-2,1.31,3.18,3.42,5.98,5,9,2.71,5.2,4.78,10.8,7.98,15.77.07,1.11.18,2.27-.1,3.36-.3,1.17-3.35,3.74-2.87,4.36,1.84.57,3.61,1.1,5.5,1.51v1c.32.07.72-.06,1,0,6.38,1.48-1.64,6.74-.47,10.48l3.91.47c5.21-10.38,10.36-20.82,16.06-30.94h2.5c2.14,4.07,13.98,23.53,14,26.5,0,1.1.01,2.52.02,3.78.02,1.89-1.52,4.16.48,5.72-.51,1.83-.41,3.63-.5,5.5-.01.24-1.26,1.42-.03,2.28,2.83,1.95,3.89-2.79,4.82-4.23.45-.7,1.22-1.14,1.63-1.87,1.67-2.99,2.43-6.35,4.7-9.05,2.9.62,14.48-4.87,15.9-3.9l.49,1-1.23,4.3c-.52.75-2.69.37-3.8.7-3.29.97-6.91,6.61-4.48,9.77-.05.31,0,.67,0,1-.11,4.01,2.18,6.21,1.93,9.93l-1.41.33c-1.54,1.02,1.61,5.04,2.34,5.24,2.39.65,12.71-1.47,15.84-2.05,9.08-1.68,26.35-6.21,35.08-5.48,1.16.1,2.34-.05,2.22,1.52-2.05.19-2.03,2.09-2.43,3.72-.62.9-2.75-.85-2.06,2.29-.43.36-.73.77-1,1-.09.07-.68-.16-.91.08-.27.44-.03.98-.09,1.42-.02.16.03.34,0,.5l-.92.07-.58,2.43.74.92c2.99-1.08,5.4-3.28,8.14-4.8,1.72-.95,4.26-1.18,6.13-2.62,2.58-.49,4.33-3.51,4.5-6-.33-.02-.67.01-1,0,.29-1.69,1.2-.41,1-2h-1.5c.22-2.33,2.27-2.65,1-5.5.37-.49.71-1.79,1-2.5.42-1.03,1.61-1.76.5-3-.39-.43-.39-.44-1-.5-2.69-1.59.45-3.03,1.12-4.12.54-.88,1.03-2.36,1.38-3.38.05-.15-.05-.35,0-.5,1.05.19,3.08-.35,3.9.11.43.24,1.59,3.12,2.39,3.3,2.1.48,2.47-1.03,3.21-1.91-.07,1.15.1,2.35,0,3.5-.03.33.04.67,0,1,0,.06-.41.12-.5,1-.07.66.07,1.35,0,2,0,.06-.42.13-.5,1-.03.33.03.67,0,1l-5,20.5c1.29.26.87-.28,1.25-.97,2.02-3.73,3.94-8.59,5.75-12.52.06-.14-.06-.36,0-.5.13-.3.33-.61.5-1,3.11-7.02,6.94-13.07,7-21.25.04-5.64-4.1-23.87-7.5-28.25,2.97-1.84,10.04-2.42,10.79-6.48.16-.86-.34-1.64-.29-2.02.34-2.5,8.42-4.78,10.39-5.84.82-.44.53-1.07.61-1.16.15-.16,1.46.45,1-.99-3.31-.99-5.72-3.23-9.5-2.51l3.96-2.3c-1.15-3.74-5.14-5.66-3.87-10.12l10.41-3.09c.42-.55-3.1-3.95-3.5-4.99-.36-.93-.67-2.02-.29-3l15.54-29.49c2.89,4.54,5.66,9.28,8.25,13.99,1.14,2.07,2.15,5.71,3.77,7.48.41.45.5.68,1.22.52l7.01-14c.37-.28.67-.67,1-1,1.19-.06,1.3.71,1.77,1.48,1.66,2.72,3.03,6.1,4.62,8.88.21.37-.12.92.8.58,5.45-1.97-.21-5.47-.96-7.92-1.86-6.11,5.53-5.43,9.2-7.58.75-1.48-.74-2.06-.93-2.44-.99-1.96-3.91-6-3.3-8.01.85-2.79,9.29-3.22,11.8-4.49.61-.83-5.01-4.62-4.41-8.12l18.9-36.14c.59-.6.85-.1,1.28.25.9.72,7.52,13.75,8.73,16.02s4.28,9.69,5.77,11c.73.64,1.61.45,2.24-.25,1.21-1.36-.49-5.6-.5-7.51-.09-15.05,13.89-26.09,28.27-25.27,7.28.41,13.25,4.2,18.42,9l11.56-21.49c.67-.05.8-.11,1.29.34,1.93,1.81,5.4,11.32,7.54,14.34.41.58.83,1.39,1.66,1.34,6.59-9.93,19.74-15.06,31.5-14,4.47.4,8.45,2.53,12.76,3.49-1.39-3.73.31-4.65,3.5-5.75.93-.32,7.14-1.86,7.5-1.75ZM364.5,342.6c0,.07-.74.37-.3.98,1.44,1.74,2.78.59,3.8.52,11.35-.77,14.67-4.55,18.5-15-7.55.26-15.23,1.91-19.91,8.33-1.38,1.9-1.86,2.82-2.09,5.16ZM327,421.6c.08,0,.54.57,1.21.52,4.57-.31,10.99-2.43,13.52-6.54.75-1.21.68-2.86.77-2.98.51-.67.01.7,1-1.5.48-1.07,1.77-1.85,2.5-2.76.16-.73-.6-1.18-1.26-1.27-1.11-.15-6.85.88-8.25,1.27-6.79,1.88-10.52,6.42-12.48,13.01.82,1.44,1.98.22,2.99.24ZM107,442.6c-.35,6.73,1.97,12.32,7.24,16.51,3.08,2.46,9.57,4.88,13.26,3.99s1.08-2.44-.26-4.99c-1.81-3.46-3.8-6.72-5.36-10.39-2.53-.51-13.05-7.48-14.88-6.11-.03.33.02.67,0,1ZM289.5,469.6c-.02.18-.83.74-.5,1.5.16.15,3.08-.47,3.51-.76.58-.39.38-1.09.49-1.24,8.27-.54,11.57-7.41,12.44-14.81.1-.86.6-2.88-.69-2.69-.71.1-4.11,1.65-4.92,2.09-6.11,3.35-9.53,9.2-10.34,15.91ZM273,452.6h-.99v.99h.99v-.99ZM337.4,453.7c-3.66.36-10.48,5.44-4.1,6.34,3.67.52,7.53-.53,9.71-3.69,1.47-2.13-4.09-2.81-5.62-2.65ZM157,458.6c-.53,1.89-.62,2.61-.44,4.69.06.66.12,3.23,1.44,2.81.05.16-.05.35,0,.5.18.52.27.6.5,1,.75,1.3,2.51,2.59,3,4,.04.11-.92,1.22.33,2.04,1.53,1,2.32-.04,2.67-.04s.67,0,1,0l4.75,4.02,1.02-1.53c-1.48-.67-3.23-2.16-4.77-2.48-.06-.95-.65-1.67-1-2.5-.11-.25.21-.93-.1-1.4-.21-.31-1.17-.35-1.4-.6-.16-.17-.34-.32-.5-.5-.05-.06-.06-.62-.26-1-.18-.34-.72-.45-.74-.5-.04-.13.02-.33,0-.5-.54-4.29,3.91-3.27,6.67-3.07.97-.32.98-1.26.75-2.08-.67-2.37-8.67-4.87-10.92-4.85-.47,0-.96-.13-1.41.07-.35.59-.4,1.28-.59,1.93ZM269,469.6h-.99v.99h.99v-.99ZM324,484.1c-.23-.28-.19-1.05-.97-1.77-6.24-5.75-14.73-4.08-19.53,2.53-.32,1.16.91.63,1,.74,3.49,4.63,6.47,6.58,12.75,5.99,2.01-.19,8.54-2.07,8.76-4.25.27-2.66-1.56-2.7-2-3.24ZM153.5,480.1c-2.73,0-5.83-.06-8.5.5l-.26-.5h-.74s0,1,0,1c-.97.28-1.6.52-2.5,1-.31.17-.62.27-1,.5-1.06.64-1.95,1.69-3,2.5-.77.6-.15-.56-1,1-.64,1.17-1.39,1.53-1.5,2.5,5.12,2.73,10.3,3.84,15.84,1.59,3.01-1.22,9.56-5.01,8.5-8.77-.56-2.01-4.36-1.33-5.84-1.32ZM189.5,485.1c-1.72,1.22-2.23,2.08-3,4h-1c-.07.65.08,1.36,0,2-.06.48.05,1.01,0,1.5-.05.56-1,1.9-.5,3,1.78.71,2.52-.79,3-1,4.45-1.97,7.95-3.43,11.5-7,.36-.36.58-.44,1-1,.09-.12.38-.74.5-1,.57-.36.73-.94,1-1.5s1.29-2.61,1-3c-.33-.02-.66-.02-1,0-1.88-1.01-4.67.25-6.75.4-1,.07-1.97-.72-3.39-.31-1.24.36-2.51,2.58-2.36,3.91ZM264,482.1c-.41,1.12-.23.84,0,2,.69,3.5,1.51,5.16,3.5,8,.15.21.11.82.48,1.25,3.61,4.2,10.2,6.75,15.51,7.75-.34-8.52-3.68-13.39-11.5-16.5-.24-2.07-6.4-3.83-7.69-3.53-.61.12-.22.76-.31,1.03Z"/>
  <path class="cls-2" d="M271,111.6c-.06-.22-.54-.6-.5-1,.25.37.46.96.5,1Z"/>
  <path class="cls-4" d="M223.5,195.1c-11.87.95-23.8,1.51-35.67,2.45-1.17-.39-.82-1.69-.71-2.56.39-3.27,4.79-12.69,4.31-14.52-.76-2.9-6.1-2.62-8.37-1.56-8.04,3.73-11,22.01-10.55,29.94.25,4.37,1.69,8.17,2.5,12.26.87,4.42.39,8.96.5,13.5,1.39.44,1.77-1.91,2.33-2.03,3.56-.78,4.15,6.75,5.06,8.89.12.28,1.94,3.28,2.09,3.41,1.4,1.15,2.11-2,2.02-2.77,1.61,2.17,4.09,4.79,5.99,6.76,3,3.11,6.24,5.94,9.51,8.74-2.65,1.72-6.91,8.57-8.5,11.5-3.15.01-5.26,2.47-8,3.5-.55-1.72-.26-2.84,0-4.5,5.4-2.46,6.45-7.72,4.49-13-3.96,1.01-5.48,4.23-5.99,8-.14,1.02.35,2.25-.75,3-.1-1.42-1.22-1.32-1.25-2.5-.08-3.1-3.21-6.89-5.76-8.99-.84-.69-3.28-2.79-3.86-1.39-.96,2.31-.37,8.21.67,10.58,1.87,4.29,6.18,4.7,9.95,6.3.92,4.68-1.45,5.6-3.26,8.99-1.21,2.28-2.27,5.27-2.69,7.81-.25,1.55.26,3.44-.16,4.84-.21.71-5.68,6.03-6.81,7.69-3.68,5.39-4.69,9.56-2.6,15.93.87,2.68,4.79,7.8,5.02,9.23.45,2.8-.41,5.71-.53,8.29-.03.7.53,1.14.53,1.21-.49,9.08-5.1,14.51-.36,24.11,1.81,3.66,2.47,4.33,4,8.5,2.63,7.21,7.18,7.02,13.86,7.89-13.97,10.32-26.57,22.61-37,36.5-8.12-.55-16.4.31-24.5.5-1.58-3.02-3.69-5.82-5-9l-2.24-3.5c-1.04.48-2.17,4.39-2.76,5.5-.49.93-1.33,1.68-1.5,2-4.58-2.87-7.83-7.69-11.74-11.51-8.66-8.46-17.94-15.73-27.9-22.6-1.66-1.15-4.51-2.33-5.86-3.39-.08-.06-.42-.41-.5-.5-.18-.21-.35-.7-.5-1-.21-.42-.41-1.93-.51-2-.33-.26-1.23.49-1.49.5-2.08.1-16.86-7.18-20.74-8.51-6.39-2.19-12.99-3.2-19.26-5.49.51-.87,1.16-2.06,1.5-3,.3-.82.73-.96.51-2.24-.17-1.02-.98-1.18-1.01-1.26-.18-.47-.26-.96-.5-1.5-.87-1.95-1.7-2.94-2.5-4.5-.34-.66-.66-1.33-1-2-.67-1.3-1.51-2.55-2-3.5-.34-.66-.64-1.32-1-2-.17-.33-.32-.67-.5-1-.86-1.61-1.64-3.36-2.5-5-1.43-2.73-2.78-5.63-4.06-8.44h-1.39c-3.87,7.63-7.61,15.36-11.56,22.94-.36.7-.42,1.88-.5,2-.03.04-.73-.12-1.01.34-.52.82-.55,2.04-1.49,2.66v-174.5c28.17-8.19,57.88-1.95,79.76,17.49l12.48,13.01c20.51-27.91,56.5-40.73,90.14-31.13,12.59,3.59,25.42,10.72,35.57,18.93,1.9,1.54,4.69,3.44,5.55,5.7ZM111,226.6c1.4,9.95,10.29,16.59,20.29,14.02-.72-9.71-12.21-12.72-20.29-14.02ZM151.5,278.1c-6.1-.3-13.61,3.01-13.5,10,6.86.73,12.81-2.93,13.5-10ZM145,333.1c-.11-.25.22-1.02-.08-1.41-.23-.29-1.12-.28-1.57-.59-.35-.23-.31-.99-.67-1.03-1.58-.19-6.8,3.34-9.18,3.03-.33.45,1.51,3.85,2.5,3.99-1.02,2.08-1.67,5.13,1.23,5.52,4.44.6,7.33-1.21,8.43-5.61.64-2.58.17-2.03-.66-3.91ZM106.5,371.6c.27.48.2,1.24.76,1.97,3.16,4.09,10.47,6.72,15.24,5.03.29-.1,1.02.25,1-.25-1.61-1.74-2.12-4.51-3.8-6.2-3.03-3.07-10.56-3.33-14.7-3.55-.51,1.61,1.13,2.34,1.5,3Z"/>
  <path class="cls-3" d="M512,170.6v75c-1.16-.19-1.63,1.38-2.08,2.17-1,1.77-3.84,6.43-3.9,8.13-.12,3.14,4.12,5.33,4.48,8.2-.37-.12-6.58,1.43-7.5,1.75-3.18,1.1-4.89,2.02-3.5,5.75-4.3-.96-8.28-3.09-12.76-3.49-11.76-1.06-24.91,4.07-31.5,14-.83.05-1.25-.76-1.66-1.34-2.14-3.02-5.62-12.54-7.54-14.34-.48-.45-.61-.39-1.29-.34l-11.56,21.49c-5.17-4.8-11.14-8.58-18.42-9-14.38-.82-28.36,10.22-28.27,25.27.01,1.91,1.72,6.15.5,7.51-.63.7-1.51.89-2.24.25-1.49-1.31-4.55-8.74-5.77-11,.97-.02,1.42-.6,2-1.25,3.56-4.04,7.27-10.81,10.6-15.4,4.18-5.77,8.54-11.85,12.91-17.34,11.55-14.53,25.13-30.27,38.5-43.5,18.23-18.04,43.85-39.65,66.54-51.71.82-.44,1.43-.92,2.46-.79Z"/>
  <path class="cls-1" d="M512,245.6v19.5c-.95.28-1.41-.97-1.5-1-.36-2.87-4.6-5.06-4.48-8.2.06-1.7,2.9-6.36,3.9-8.13.45-.79.92-2.36,2.08-2.17Z"/>
  <path class="cls-1" d="M2.5,342.6c1.81,2.24.36,4.83-2.5,4.5v-1.5c.94-.62.97-1.84,1.49-2.66.28-.45.98-.29,1.01-.34Z"/>
  <path class="cls-1" d="M248,37.1c.87-2.84,5.79,1.77,5.99,1.5l-1.99-10,1,2,1-.37.73-1.12,3.26,1.99c1.72,4.16,2.04,6.36.65,10.9-.51,1.67-2.19,3.83-2.18,5.35,0,.82,2,6.49,2.53,5.75.03-.83-.02-1.67,0-2.5,1.21.06,1.29-.73,1.77-1.48,1.6-2.53,2.9-5.34,4.24-8.01.95-.12.29.93.15,1.4-.95,3-2.77,5.21-3.65,8.1.36.38,3.39-2.3,4.03-2.71.47-.29,1.66-1.32,1.96-.29-.45.91-.29,1.47-1.23,2.52-4.35,4.93-7.63,1.12-7.27,11.22.07,1.94.34,5.81,1.49,7.25-.18.7.11,1.68-.5,2.5h.99c-.29-1.19,2-2.66,2.03-2.84.21-1.55-.82-2.84.36-5.04.58-1.09,2.08-.91,1.62-2.62.38-.42.56-.62,1-1l11-2.5c-1.36,3.19,1.17,2.21,1.5,5-4.15,8.78-7.42,10.64-17.44,11.06-2.62,6.73.82,13.9-.05,20.94,2.41-1.75,4.75-3.54,6.99-5.5.6-.52,1.34-.82,2-1.5,1.76-1.83,3.12-3.25,3-6,2.8-.89,1.77-3.56,4-6-.51,2.52-1.16,5.08-2,7.5-.34.97-.51,1.96-1,3-.21.44-1.18,2.03-1.5,2.5-3.11,4.63-11.01,9.02-11.53,14.22-.65,6.56,2.05,13.3,6.78,17.77l4.25-8c1.58,0,2.17-1.84,3-2.5,2.4-1.91,11.48-5,10.25-8.47-.9-2.54-4.14-4.53-4.24-8.36-.02-.75.47-1.05.48-1.16l4.49,6.5c.78-3.16.54-6.49,1.07-9.68.1-.59.15-2.33.93-2.31v6s1.49-.76,1.49-.76c-1.82,2.12-1.56,4.63-1.48,7.25l3.5-6.99.99,1.5c-.13,1.21-.74,4.03-1.15,5.1-.49,1.29-1.77,2.02-1.85,3.39,5.54-.52,10.3-6.34,11.67-11.57.81-3.08,2.27-9.28,2.69-12.3.79-5.73-.67-3.92-4.21-6.03-9.54-5.67-10.37-12.61-8.15-23.09l10.99,8.25,4,10.74,1.87-6.19c-4.44-5.82-2.62-12.29,2.14-17.31,1.54.76,1.56,2.48,1.5,4h1.5c.1.43-.1,1.06,0,1.5l.5,1c.26,1.43.84,2.76.98,3.79.63,4.38-4.21,8.05-6.08,11.87-1.26,2.59-2.75,6.49-2.16,9.34,2.12-1.98,4.99-3.95,6.75-6.25,1.28-1.67,6.07-10.37,6.04-12-.02-1.32-.6-2.55-.58-4,.09-10.35,11.64-16.56,20.04-19.75v7.75c0,4.77-4.94,12.98-9.15,15.35-4.47,2.51-6.78.89-9.61,6.39-.72,1.39-.93,2.93-1.72,4.27.39.29.94-.23,1.49-.26,2.72-.13,5.41.41,7.76-1.49v1s8.24-.5,8.24-.5l-.99.99h3s-.5,2.51-.5,2.51c-4.4,2.54-6.85,3.92-12.22,2.47-2.17-.59-4.84-2.99-6.92-2.39-1.34.39-2.55,3.31-3.62,4.41-1.85,1.92-5.58,3.73-7.25,5.75-2.81,3.39-1.64,7.1-2.05,10.95s-3.82,10.4,2.82,3.32c4.21-4.49,4.1-6.85,6.64-11.36,2.86-5.08,8.86-5.89,14.1-6.64-.44,4.6-2.55,10.19-7.15,12.1-1.94.8-6.23.96-7.34,1.66-.25.16-3.04,4.04-1.25,3.75,1.2-.19,10.42-3.86,8.5.49-1.45,3.29-7.55.25-9.74,1.26l-5.51,5.5c-.2,1.06.45.8,1.2.7.89-.13,3.04-.61,3.8-.96-.28,1.51.77.96,1.73,1,3.5.14,6.82-.3,10.27-.5-.1.7-3.49,1.49-3.75,1.49h-7.25c.56,1.69,5.89,1.06,4,3.5-3.78-.36-6.68-3.41-10.8-3.44-4.87-.04-7.84,4.08-11.58,6.42-3.97,2.48-8.75,3.86-11.87,7.52s-4.15,8.55-4,13c.87-.75,1.57-1.57,2.25-2.5,4.58.12,8.01-4.45,12.5-4.99-2.27,2.92-7.37,3.65-9.98,5.76-.81.66-1.13,1.16-1.02,2.24-2.65.42-2.57,2.72-3.5,4-.05.07-.93.02-1.44.79-2.29,3.45-2.47,8.83-1.93,12.83.07.5,1.26,5.66,2.37,4.38.2-5.08-.71-10.81,1.5-15.5,1.4,6.68,5.8,12.26,7.01,19,2.47-2.27,4.47-5.01,6.99-7.26,3.03-2.71,6.66-4.67,9.78-7.22.89-.72,1.13-1.95,1.23-2.02.31-.22.8.13,2-1,1.43-1.34,7.19-6.25,5.91-8.41-.1-.16-1.02-.43-1.41-.81-4.45-4.3-6.31-7.42-4.36-13.89.31-1.01,2.55-5.74,3.13-6.37.41-.45.5-.68,1.22-.52,2.14,4.41,5.9,11.44,4.67,16.4-.49,1.98-2.16,4.01-2.66,6.09.85.71,7.04-4.35,8.01-5.24,1.83-1.67,3.15-3.71,4.72-5.28,2.05-2.04,8.16-6.18,8.22-9.22.04-2.05-2.18-4.06-1.75-7.27.58-4.27,3.91-6.06,4.95-8.64.49-1.21-.47-2.54,1.35-3.85.46.04,1.06-.32,1.5-.5.02.33-.03.67,0,1v.5c-.05,5.54,2.41,10-.3,15.45-.96,1.94-2.6,2.25-3.2,4.05l11.5-7.24c4.27-4.79-.23-6.76-.89-10.63-1.08-6.33.8-9.76,4.88-14.13l-2,12.5c1.52.23.82-.36.98-1.26.4-2.33.97-4.46,1.53-6.74.9-.03,1.05-.25,1,.74-.11,2.08-1.05,4.9-1.49,7.02,1.21.16,1.5-3.01,2.99-2-.45,1.53-2.49,2.57-2.88,4.12s0,3.49-.12,5.13c-.05.71-.9,1.93-.5,3,.56.07.99.02,1.5-.25,1.77-.93,9.42-9.75,10-11.75,5.66-2.94,9.67-8.04,12.75-13.5l-1.01,4.49,15.26-11.49c-.05,6.6-5.76,17.87-11.65,21.1-4.88,2.68-9.67,1.9-14.82,3.18l-5.03,6.97c.13.57,1.23.09,1.5.25.04.03-.2.74.37.98,1.88.79,5.54.75,7.66,1.25,4.24.99,7.54,2.45,11.43,4.32l-.95,1.95c-4.76,1.33-10.4,1.86-14.67-1.08-2.63-1.81-2.82-4.77-6.52-4.39-3.99.4-8.84,4.98-12.35,7.19-.41.26-3.97,1.9-3.46,2.28.66,0,1.34.02,2,0,.05.43-.53,1.31-.5,1.5-5.75-1.1-10.16,4.65-13.76,8.49-1.35,1.44-2.39,3.56-3.74,5.01-1.47,1.58-3.63,3.08-5.24,4.51-.33.3-1.38.98-1.02,1.48,1.97-.78,3.71-1.9,5.52-2.98,1.03-.61,3.6-1.76,3.74-3.01,3.64-.93,7.03-3.35,10.88-3.87,3.5-.47,7.24.17,10.77-.23,3.34-2.24,5.54-7.04,9-9,2.56-1.45,9.02-2.18,12.1-2.4.63-.05,1.04.02.75.75-.77,1.93-4.31,6.14-5.99,7.51-3.02,2.46-6.19,3.21-9.5,5,2.47,1.31,5.99.9,8.61.11,1.83-.55,9.01-4.43,10.35-5.65,1.15-1.04,2.12-3.37,3.28-4.72,4.64-5.42,10.09-6.83,17.01-7.54l11.75,1.04c.16.8-.1,1.15-.49,1.76-1.09,1.77-6.03,7.73-7.51,8.99-4.6,3.91-10.83,5.21-16.75,4.74-2.66-.21-5.07-1.53-7.9-.88-.59.14-5.83,3.3-5.84,3.64-.03.8,3,.37,3.99.75,1.06.41,2.26.8,3.51,1.24,2.41.86,5.07,3.1,7.49,2.26.37.48,1.89,2.07,1.5,2.5-3.73.7-8.1,1.93-11.68-.06-2.13-1.19-3.3-4.66-5.62-4.93-2.11-.24-5.26,1.03-7.45,1.03-6.37,0-10.06-2.47-17.25-.54l-.5.5c-.28.08-.72-.08-1,0,.36-1.85-3.75-.93-4.53-.77-2.64.52-9.56,3.11-10.47,5.77-.32.17-.79.36-1,.5l-.5.5c-.32.29-.59.64-1,1-7.85,3.62-13.65,6.84-19.23,13.53-.95,1.14-.24,2.63-2.7,1.9l-.57-1.93c-.93-.15-1.44.65-2.01,1.24-6.61,6.82-12.61,16.67-13.48,26.26,2.08-1.56,3.05-4.5,4.48-6.66.31-.46.99-.3,1.02-.34l-.5,19,.75.5.25-.5c3.35-4.93,18.19-10.43,20.27-15.02.83-1.84-1.73-3.36-2.55-4.95-2.6-5.05-.29-9.76,3.28-13.53,1.83,2.88,1.12,6.14,1.5,9.25.31,2.6,1.4,4.16,1,7.25-.11.89-1.54,2.5-.75,3.5,5.92-3.26,17.7-10.37,15.16-18.65-.43-1.39-5.12-3.29-5.41-6.58-.37-4.24,1.31-7.37,3.5-10.76,1.5,4.6,1.94,9.9,3.22,14.54.2.73.7,1.06,1.28,1.46-.59,1.53-.62,2.64-.5,4.26.06.74-.39,1.44.74,1.24,2.87-3.74,9.06-12.17,6.76-17l2.24-1,.26.5c-.4,1.04-.47,2.12-.52,3.23-.03.59-.35,2.77.52,2.77.55-3.01,4.25-9.29,6.48-11.27,1.2-1.06,9.72-5.02,10.52-4.23,1.19,11.61-5.34,18.9-17,18.75-2.39,3.96-4.56,7.93-7.33,11.64-.31.41-.62.66-1.17.62-.13.89.52.37,1.02.27,2.9-.57,5.72-1.62,8.71-1.8,3.81-.23,9.06,1.25,12.4.4,1.84-.47,6.11-5.4,6.26-7.21.08-.95-2.27-4.84-2.34-6.96-.14-4.16,3.77-9.49,6.71-12.22.42-.39,1.06-.35,1.24-.49,2.36,1.28-1.46,9.39-1,10l.99-.26-2.48,5.52c.43.6,5.57-4.54,4.48-2.01-.49,1.14-3.73,3.65-5,6.26-1.11,2.29-1.6,4.83-3,6.99.7.1,1.33-.06,2-.24,2.21-.61,12.71-6.11,14.47-7.53,1.92-1.54,2.29-5.14,3.27-7.23,4.35-9.19,13.36-11.03,22.75-11-.56,8.2-7.62,17.14-15.87,18.88-2.21.47-5.85.18-7.78.72-1.18.33-2.44,2.17-3.35,2.9-.47.37-.69.73-1,1-1.1.97-2.85,1.46-3.5,2.99,1.38.22,2.67-.45,4-.49.27,1.93,1.96,1.68,3.12,2.53,1.26.91,1.42,2.39,2.39,3.22,2.2,1.88,8.12,3.54,10.99,4.26-.84,2.69-10.24,2.01-12.6,1.35-5.24-1.46-5.81-4.26-9.12-7.37-2.78-2.61-4.22-.12-7.14.9-10.33,3.59-19.2-.93-29.85,3.15-5.34,2.05-8.46,5.95-12.78,8.97-3.55,2.47-7.65,4.22-11,7,3.98-.35,7.66.21,11.5,1,3.07.64,10.15,3.24,13.03,1.26.65-.45.34-1.56.47-1.76.04-.05.79-.05,1.2-.53,1.56-1.76,2.96-3.72,4.55-5.46-.3,2.77-2.33,4.91-4.25,6.75-.5,1.21,2.9.77,3.5.74,5.9-.24,5.38-.6,9.5-3.5,2.65-1.86,3.85-3.11,6.25-5,.64-.51,5.64-3.94,5.99-4.01.28-.06.83-.12.75.26-.35,1-6.38,4.96-5.5,5.75l6,.5c-3.63,3.97-6.63,2.9-11.1,4.15-.45.13-1.92.72-1.9,1.34,6.46,1.82,12.91-2.2,18.75,2.01.65.47,6.17,6.18,5.75,6.49-3.78-.7-8.58,1.63-12.14.89-4.17-.87-6.12-6.36-10.61-6.88-2.5-.29-10.48.32-12.76,1.24-1.98.8,2.88,1.73,3.51,1.76-.27,1.21.61,1.04,1.32,1.41,3.55,1.89,7.08,3.82,10.68,5.6.05.71.24,1.2-.69.95-2.66-.73-6.84-4.27-9.17-4.89-1.1-.29-1.14.16-1.63.93-2.39-3.48-10.55-5.56-14.5-3.99.2.48,2.05,1.34,2.5,1.49,1.91,3.78,6.57,5.96,7.25,10.49l-5.01-5.49c-.63,1.29,1.31,3.21-.74,4,.23-3.67-.35-5.4-3.04-7.74-.45-.39-1.33-.16-1.47-.26-.07-.05,0-1-.72-1.51-4.03-2.91-13.16-3.94-17.93-2.88-2.49.55-6.16,7.02-7.09,9.41-1.86,4.73-1.73,9.61-3.12,14.38-2.99,10.25-10.55,15.77-19.14,21.11-.76.47-2.63.45-3,2-4.04,1.22-8.66,2.3-12.5,4-3.1,1.37-6.16,3.96-9.5,5,.09-.12.33-1.41.99-2.24.94-1.18,3.27-2.7,3.52-4.01.13-.69-.03-.96-.75-.75-1.4.41-4.3,2.32-5.92,3.09-3.37,1.6-4.29,2.53-6.99,4.01-3.52,1.92-9.04,3.02-12.84,4.66-3.18,1.37-7.39,3.5-8.76,6.73l16-5c.77.4.06.87-.24,1.26-1.68,2.24-13.95,12.61-16.54,13.96-4.44,2.33-9.39,2.51-13.98,5.02-4.04,2.21-9.45,6.73-10.49,11.26.96.95,6.2-4.69,7.26-5.49,5.52-4.12,12.8-4.66,18.57-7.93,5.32-3.01,9.43-9.02,14.42-12.57.19,1.54-3.54,4.33-2.67,5.43.15.19.86-.01.91.06,4.51,5.79,8.5,9.61,13.26,14.99,3.8,4.31,6.6,8.9,10.74,13.01,2.03,2.01,3.51,4.02,6.49,5,.97-3.04-1.24-4.24-1.99-6-.32-.74-.28-2.05-.5-2.5,3.02,2.11.33-3.9-.06-4.69-2.72-5.53-5.98-7.28-10.44-10.81-2.46-1.95-5.05-3.78-7.51-5.74-1.03-.83-2.24-2.7-2.99-3.26.26-.02.5-.26.5-.5l12.03,5.3c.58.37.8-.24.97-.3,2.64-.96,4.03-6.54,7.76-7.49-.64,3.26-6.47,5.62-5.26,8.99l-1,.25c5.63,4.8,10.93,9.71,12.76,17.24.62,2.55.37,6.18,1.2,8.3.71,1.81,4.91,5.97,6.31,8.69,1.53,2.98,3.66,8.75,4.23,12.02.65,3.72.16,8.93,1.1,12.15.79,2.68,5.72,3.71,5.4,10.08s-8.78,19.27-12.99,24.03c-2.06,2.33-9.34,8.07-10.23,9.77-1.14,2.19-1.28,6.49-1.29,8.96-1.04-.18-.97-2.21-.99-3-.04-1.6.02-2.96.5-4.5h-2.5c2.66-1.85,7.66-6.49,9.76-9,.85-1.02,2.91-3.64,3.24-4.77.2-.7-.04-.89-.73-.73-6.19,4.38-11.94,9.07-16.76,14.99-4.8-2.38-7.19,4.54-10.88,4.92-3.54.36-.22-2.91-.11-3.69.29-2.05-1.42-3.31-1.53-4.52-.12-1.33,1.37-2.14,1.54-3.49.11-.91-2.06-.87-1.02-1.72,1.25-1.02,2.09,2.4,3.5,1.5l.21-2.54c3.81-.8,1.74-.79,1.79-2.96.04-1.91,4.81-6.19,3.77-7.52l-14.77-2.98-32.5-6c.51,5.27,5.57,8.57,10.5,9,9.55,4.16,20.29,5.43,30.5,7.5-.42.07-1.18.75-1.96.54l-.36,1.99c-3.12.55-6.13,1.01-9.29.82-.85-.05-1.6-1.08-1.39.65-3.29-1.08-9.21-3.55-12.25-4-.36-.05-.86-.11-.75.25,2.47,2.62,6.16,8.93,10.21,8.25,2.86-.48,1.83-1.16,5.79-.49v.5c-1.51.98-2.87,2.79-3.5,4.5-.4.35-.72.75-1,1-.67.58-1.55.77-1.5,2-.17.16-.33.34-.5.5-1.04,1-1.83,1.98-3,3-.79.69-1.69,1.32-2.5,2-.18.15-.32.35-.5.5-.45.38-1.06.61-1.5,1-.18.15-.32.35-.5.5-.42.37-.73.77-1,1-.18.16-.77.34-1.5,1-2.74,2.45-4.42,4-6.5,7-.12.18-.39.31-.5.5-.49.8-1.76,1-.76,3.01.08.16,2.57,2.16,2.79,2.25,2.62,1.14,6.92-5.51,8.47-7.26l4-3c.28-.16.64-.29,1-.5,2.63-1.56,1.32-1.14,2.5-3,.23-.36.36-.79.5-1,.08-.12.37-.39.5-.5.26-.2.7-.3,1-.5.21.85,1.38,3.23,2.5,3-.12.14-.08.84-.47,1.26-1.36,1.45-8.46,6.37-8.03,8.48,4.06,2.74,9.03-3.06,11-6.24-.03,1.24.32,6.24,2.16,5.93,1.94-1.29,4.36-2.19,5.99-3.92,2.74-2.91,2.38-3.63,6.35-6.51-.75,1.55-2.42,2.02-3.5,3.25-1.19,1.36-2,3.31-3.24,4.76-3.2,3.72-8.35,6.32-10.76,10.49-1.52-.01-3.14,1.57-4.24,2.51-6.39,5.51-11.97,11.89-17.76,17.99.47-1.39.47-3.5,1-5-.36-.36-2.09.97-2.44,1.3-1.05.97-2.7,2.97-3.56,4.19v-4.5s.5-3,.5-3c-3.89.65-6.84,2.82-10.98,1.74-2.51,2.08-2.41,5.13,1.46,4.78l.77,2.47c2.12-1.76,3.7-4.49,6.26-5.5.22,6.59-5.47,9.8-11.26,10.49-1.59.19-3.29-.14-4.94.06-5.97.74-9.61,5.62-12.31,10.44-1.07,1.92-2.93,4.97-3.5,7-2-1.57-.46-3.83-.48-5.72-.01-1.26-.01-2.68-.02-3.78.9.43,1.02,1.04,1.61-.13.89-1.76,1.39-4.28,2.3-6.2.99-2.1,2.81-4.54,3.47-6.53,1.25-3.78,1.18-8.55,2.61-12.64,3.66-10.41,10.26-10.6,18.16-15.59,2.13-1.34,7.83-5.74,9.52-7.48,1.83-1.89.3-2.77-1.18-4.19-5.76-5.55-12.48-10.18-18.03-15.97-1.28-1.18-3-.58-4.48-.77-6.68-.87-11.23-.68-13.86-7.89-1.53-4.18-2.19-4.85-4-8.5-4.74-9.6-.13-15.03.36-24.11,1.1-2.32,4.53-9.42,0-9.5-.23-1.43-4.14-6.55-5.02-9.23-2.08-6.38-1.07-10.54,2.6-15.93,1.13-1.66,6.6-6.97,6.81-7.69.42-1.4-.1-3.29.16-4.84.42-2.54,1.47-5.53,2.69-7.81,1.81-3.39,4.17-4.32,3.26-8.99-.57-2.9-4.39-4.88-5.83-6.67-.78-.97-1.47-3.56-2.66-4.59,2.87.68,4.53,3.12,6.28,5.22.91,1.1.61.06,1.21-.46.03,1.18,1.14,1.08,1.25,2.5,1.1-.75.61-1.97.75-3l1.25,1.5c.71.01,1.81-4.63,2.75-3.5.39.46-1.98,4.08-2.26,5-.24.78-.13,1.34-.23,1.99-.25,1.66-.54,2.78,0,4.5,2.74-1.03,4.85-3.49,8-3.5-.26.49-.38,2.25-.91,3.34-2.02,4.17-7.67,8.96-4.84,14.16,2.08-1.47,3.19-4.48,4.97-6.03.88-.77,2.41-1.14,2.83-1.67.92-1.16.14-3.78.84-5.66.99-2.64,4.21-4.57,6.11-6.39.19-.19,4.2-5.45,3.48-2.53-.68,2.75-2.44,4.65-2.97,7.28,7.57-1.63,6.52-12.17,11.99-16.75l.75,1.75c2.69-3.06,5.65-6.63,8.75-9.25,1.52-1.29,8.97-5.76,9.26-6.24.38-.62.25-1.33.24-2-9.51.42-15.44,6.92-22.53,12.22-3.02,2.26-6.43,4.31-9.47,6.28-3.27-2.8-6.52-5.63-9.51-8.74-1.9-1.97-4.37-4.59-5.99-6.76-3.42-4.6-8.46-14.36-9-20-.27-2.83.13-5.71.5-8.5-1.29-.24-.88.23-1.23.99-.87,1.9-1.35,4.4-1.27,6.51-.33,0-.67,0-1,0-.8-4.09-2.24-7.89-2.5-12.26-.46-7.93,2.51-26.21,10.55-29.94,2.27-1.05,7.61-1.34,8.37,1.56.48,1.83-3.92,11.25-4.31,14.52-.1.88-.46,2.18.71,2.56,11.87-.94,23.8-1.5,35.67-2.45,15.33-1.22,30.64-2.8,45.92-4.58,1.05-2.54,1.24-5.19,1.08-7.92-16.17,1.56-32.42,3.36-48.64,3.9-3.48-3.3-.05-4.22,3.04-4.76,12.93-2.24,28.25-3.98,41.36-5.13,1.57-.14,3.18.08,4.75,0,.25-1.05-.47-6.32-1.33-6.53l-32.43,3.02c-2.08-.07-8.31.91-5.45-2.45l34.71-6.55c1.07-1.1-6.98-9.72-8-11,.05,0,.26-.51.94-.26.35.13,4.19,3.07,3.56,1.02-.57-1.87-5.61-8-7.64-8.12-2.31-.14-2.59,2.08-4.86,1.86-.23-.12-1.15-.4-1.5-.5-1.57-.44-1.24.01-1.5,0-.33-.02-.67.03-1,0-1.2-5.4-7.26-6.21-12-6.5-1.65-.1-3.35.03-5,0-1.18-.02-2.31.5-2.5.5-6.21-.03-10.68-1.33-17.11.64-1.84.56-8.78,4.02-9.3,5.71-.45,1.46.67,4.59.37,6.86-.76,5.72-8.01,9.43-12.95,10.79-.23-4.98.62-11.23,4.49-14.76,2.19-2,5.31-2.43,7.01-4.73-2.68-.24-6.33,1.21-8.47,2.78-3.09,2.26-3.44,5.53-5.78,8.22-1.51,1.74-2.22,2.11-4.26,2.99-.12-3.09,3.12-4.81,3.5-7.5-.47-.51-9.35,6.56-11.49,5.25.7-1.09,14.58-7.41,13.5-8.25-1.35-.19-3.46,1.78-3-1,.82-.07,1.68.07,2.5,0,.14.81,1.17.61,1.5,0,1.35-.31,3.84-2.78,5.65-3.6,3.68-1.66,8.09-1.11,10.85-3.9h-8.25c-3.5,0-8.49-3.05-11.63-3.41-2.65-.3-6.62,2.9-9.27,4-1.78.74-4.46.8-5.97,1.89-1.4,1.01-2.5,4.24-3.86,5.78-1.73,1.97-2.06,1.5-4.01,2.24-.1-1.98-1.44-1.56-2.72-.98l-.53-1.05-2.74.53c3.16-5.33,5.65-5.14,11-6.75.47-.14,1.14-.09.99-.74-1.77-.19-3.85-1.76-5.63-1.43s-5.69,4.51-8.35,5.19c-5.48,1.4-10.83-.75-15.18-3.85-.92-.65-6.44-5.08-5.83-5.91,8.33-2.59,15.74-8.41,24.35-3.1,3.45,2.13,4.62,5.47,9.12,6.38,4.26.86,5.58.03,9.03-1.78.78-.41,1.41-1.17,2-1.5,1.01-.56,3-1.14,4.17-1.5,1.4-.73-.57-1.16-.91-1.49-3.69-3.51-9.41-9.46-14.37-10.69-3.05-.75-3.61,1.63-5.73,3.08-5.88,4.02-10.53,2.73-16.16-.91v-1c.16-.02.33,0,.5,0,3.12-.15,6.02.19,9.01-1.25l.49-.5-.99-1.74c.91-.28,2.36-.13,2-1.5l-3.5-1c3.28-1.05,3.96-.13,6.88.38.52.09,1.74.52,1.62-.37-1.53-.46-2.33-2.27-3.88-2.87-2.43-.94-5.91-.62-8.88-1.62-8.86-2.98-13.18-12.01-15.23-20.52.15-.16,1.54.38,2,.5l1,.5c.16.03.34-.04.5,0,.14,1.18,1.85,2.34,2.76,2.99,7.44,5.42,13.3,10.36,20.24,16.01,3.21,2.61,6.24,5.49,10.5,6.5.62.84,5.54,4.49,6,4-.36-3.33-1.21-6.87-3.06-9.7-.39-.6-3.12-1.54-.45-1.79.96,2.46,2.99,3.77,3.67,6.59.62,2.6-.67,5.86,1.84,6.41.29-.38-.75-5.78-1.02-6.72-.68-2.33-2.94-4.33-1.47-6.78,1.13,1.68,2.08,2.04,2.77,4.48,1.35,4.75-.83,8.23,3.27,11.73,6.56,5.58,17.49,9.88,25.95,7.55l-7.5-5.75c.07-.16.04-1.21,0-1.5-.2-1.29-3.85-3.85-5.03-4.22-1.92-.61-4.35-.29-6.47-1.03-5.1-1.77-6.49-8.33-7.51-12.99,4.39.08,10.03,2.07,12.72,5.78,1.4,1.93,1.98,4.82,4.03,6.46,1.09-.78.64-.91.35-1.84-.98-3.18-1.3-2.59-.6-6.15l2.76,1.05,1.23-1.05c1.24,2.49.29,5.94,2.01,8-.85,2.26-2.91,5.65,1,6,.01,2.12,3.6,3.48,5.51,4.24,1.12.44,2.01.47,2.99.76,3.82,1.12,7.66,2.1,11.71,2.03l.74-2.95c-1.76-.85-3.37-2.14-4.7-3.57-9.11-9.76-18.82-30.22-34.52-30.52-2.28-.04-3.74,1.59-5.73,2.26-7.7,2.58-12.52,2.33-19.11-2.73-.57-.44-3.42-2.96-2.58-3.52.73-.44,2.09-.63,2.7-.98,3.95,1.55,8.77,1.47,13,1.99.21-.43-5.86-3.51-3.25-3,1.66.32,3.4,1.86,5.14,2.36,2.41.7,4.33.4,6.61.64,2.02.21,4.23.6,6.24,1.01l.2-1.2c-3.32-1.93-7.81-8.78-10.96-10.04s-7.71,1-11.17.68c-6.57-.6-9.69-6.2-11.31-11.95,5,1.31,10,2,14.46,4.79,1.41.88,3.72,3.38,4.8,3.7.7.21.89-.05.74-.74l-7.48-11.52c-4.66-.75-10.47-1.92-13.52-5.73,3.57,1.01,7.37,1.69,11,2.49-2.3-3.08-5.68-4.62-8-7.75,2.68-1.02,3.91,2.86,6.25,3.74.33-1.73-1.8-5.07.24-5.99.11.11.92.1,1.25.48,3.07,3.55,2.73,6.27,4.31,10.21,2.81,7.01,9.29,14.15,14.69,19.31,1.54-5.82-3.52-7.2-6.25-10.75-3.75-4.86-3.88-8.25-2.74-14.01.08-.4-.31-1.03-.26-1.24,1.33-.29.99.67,1.23,1.49,1.13,3.79.84,3.89,2.89,7.12,1.26,1.98,1.24,4.08,2.87,5.39.25-2.18-.67-4.28-.86-6.39-.22-2.37-.44-4.94-.62-7.37-.04-.55-.37-1.86.49-1.73l1.01,4.99.99-.99c.02,1.85-.64,9.95.51,11,1.33,1.22,1.99-4.49,2.99-4.5-.11,4.02-2.99,5.55-1.66,9.93.31,1.01,1.14,1.47,1.17,1.57,1.59,4.53.98,6.41,4.75,10,5.49,5.22,13.82,8.42,19.24,14l-.84-10.87c-2.48-2.33-5.88-1.48-9.17-3.37-4.69-2.69-7.8-10.32-5.99-15.26,2.98,5.69,4.6,12.38,12,13.5.81-.78-5.64-5.91-5.99-6.75-.37-.9.58-.91,1.17-.67,2.27.92,8.25,10.4,9.58,10.41.71-.4.58-.93.75-1.49.98-3.25,2.3-10.95,1.28-14.03-.48-1.47-4.51-3.25-6.02-4.48-7.87-6.42-7.01-13.5-3.26-21.99,1.58,2.63.86,5.66,2.22,8.53.23.49,2.65,4.15,3.28,3.46-.14-1.28-.47-2.4-.52-3.73-.02-.55-.31-1.9.52-1.77.71,3.69.58,7.5,3.49,10.27,2.33,1.3,1.7-4.45,2.52-5.27,2.3,6.13.79,11.05,1,17.5.01.33-.01.67,0,1,.83.19,1.01-.27,1.49-.75,2.24-2.29,3.69-8.07,6-10,.63-.53,1.26-.37,1,.5l-3.49,5.52c-.21.62.12,1,.74.74,2.51-1.08,7.85-8.85,8.76-11.74l1,.74c-.32,5.77-1.3,9.71-6.66,12.59-4.5,2.42-5.78.51-7.86,6.14-3.56,9.6-3.48,20.25,1.53,29.27.84.78,1.88-2.16,2.09-2.65,1.46-3.4,2.75-6.91,3.9-10.35.03-.09.71-.25,1-1.5,3.69-2.81,1.68-8.06,4-12,.24-.42,3.68-3.8,4-4,.29-.19,1.5-.38,2-.5-1.97,2.24-2.98,6.07-3.5,9l3.32-2.92,3.18,1.92c-.91,4.15-3.04,5.6-6.5,7.5-.19.11-.91-.06-1.47.26-2.42,1.38-3.47,5.36-4.53,7.74-1.34,3-3.69,7.42-3.47,10.68.43,6.31,9.77,12.39,15.46,13.82.28-.28-2-4.71-2.49-5.25-.85-.95-2.47-1.53-3.51-2.49-4.71-4.32-5.3-7.45-4.99-13.76.78,1.74,2.53,3.25,4.5,3,.37-1.54-2.09-3.63,0-4.5l5.26,12c.55-1.48.98-3.02,1.51-4.51.28-.79-.11-1.78,1.24-1.48.32.98.9,1.71,1.03,2.73.83,6.44-3.66,11.55,4.13,14.87,4.29,1.83,9.5,2.73,13.51,5.49,2.66,1.83,3.73,5.33,6.83,6.42.15,1.64,2.17,3.96,3.49,5l-2.99-7c.02-.3.05-.74,0-1l-.5-.5c-.46-1.32-1.3-2.01-1.45-2.4-.83-2.17-1.15-4.9-2.05-7.1.08.09.7,0,.97.28,1.16,1.19,1.9,2.95,3.52,3.72l-.89-4.35-9.6-12.15c-.07-.3.07-.7,0-1l.49-.25-.49-.25c-.52-2.54-1.6-6.57-1.5-9,.04-.91.79-3.62,1-5,.92-6.06,2.11-9.78.94-16.19-1.35-7.41-5.68-6.02-11.1-9.4-6.62-4.14-8.78-10.34-8.85-17.9,1.14-.37,1.81.77,2.5,1,.36,1.88,4.24,5.89,5.76,6.5,1.35.54.2-1.69,1.24-1.49-.45,2.36,1.37,3.85,2.76,5.49,1.4.6.45-2.67.75-2.99l4,1c.25.38.33.69.5,1l.5.5c1.33,2.93,1.79,5.26,2.01,8.5.74.04.88-1.8.93-2.31.44-4.29,1.06-12.98-1.32-16.55-1.48-2.22-6.43-2.54-8.97-4.03-4.15-2.45-5.06-6.21-5.65-10.6l3.48,5.27c2.42,1.59,3.47,3.85,6.28,4.72.64.2.98-.11.73-.73-.45-1.15-6.47-7.21-5.49-8.26,2.03.41,2.68,3.35,4.25,4.49l1.24-3.5c2.63,3.61,2.47,5.61,4.14,9.11.62,1.31,1.94,2.49,1.86.15-.05-1.32-.84-6.64-1.22-7.79-.92-2.86-5.92-4.74-7.28-9.97ZM219.75,76.1v.5c.32-.17.32-.33,0-.5ZM303.75,97.6v.5c.32-.17.32-.33,0-.5ZM340.25,113.6v.5c.32-.17.32-.33,0-.5ZM159.5,138.09c-1.86-2.54-3.68-4.37-7-4.49-.03,1.07.52,3.27,1.49,3.75l5.5.74ZM272.49,207.59c4.34-8.68,3.69-18.2,2-27.49-.7.06-.88,2.24-.93,2.81-.75,7.4-1.07,15-1.58,22.42-.04.54-.34,2.36.51,2.26ZM355.75,185.1v.5c.32-.17.32-.33,0-.5ZM230,200.1c-13.89,1.53-27.8,3.1-41.62,5.13-2.42.8-1.62,6.14.47,6.77,1.85.56,9.38-.75,11.91-.9,12.15-.68,24.14-1.35,36.24-2.51,8.34-.79,16.72-1.59,25.03-2.72,2.03-.26,6.14-9.1,5.47-9.78-12.47,1.52-25.01,2.62-37.5,4ZM300.5,197.6c-5.25,1.62-9.04,7.69-12.01,12.12-1.56,2.32-4.92,7.13-5.93,9.68-1.44,3.62.66,7.89.45,11.7,13.89-6.36,13.34-20.97,17.49-33.5ZM277,215.1c.5.56,2.86-2.05,3.25-2.49,3.65-4.09,6.36-9.28,8-14.5-2.51,1.31-3.57,4.12-5.25,6.24-.73.92-1.78,1.3-2.63,2.37s-4.01,7.65-3.37,8.37ZM242,213.1c-12.51,1.23-25.72,2.81-38.18,4.57-3.02.43-9,.98-11.57,1.93-.62.23-1.27.23-1.19,1.16.07.81,3.1,6.2,3.95,6.58,2.23,1.01,13.41-1.42,16.75-1.74,8.31-.8,16.68-.83,24.99-1.51,3.56-.29,7.97-.56,11.26-1.49.41-.12.92.05,1.46-.27.88-.52,6.79-7.43,7.44-8.58.32-.56.76-.9.59-1.65-5.19-.19-10.35.49-15.5,1ZM258.99,218.6l-12.5,12.28.25,3.21c5.07-3.92,10.03-9.42,12.25-15.49ZM278,219.1c-.48-.53-2.12,1.34-2.51,1.73-2.08,2.13-5.15,5.29-6.99,7.51-.47.56-1.21.81-1,1.75,4.65-2.04,9.22-5.84,10.49-11ZM268.5,237.1c.36.34,8.75-2.67,9.25-3.49.64-1.07.03-6.26-1.01-6.5l-5.23,5.26-3.01,4.73ZM242.5,228.1c-13.66,1.58-27.27,4.37-40.5,8-.03.39-.06.78.07,1.16.19.58,5.97,6.84,6.57,6.75,3.45-1.87,7.74-1.93,11.57-2.95,8.19-2.2,16.3-7.05,22.29-12.96ZM260.75,242.6v.5c.32-.17.32-.33,0-.5ZM215.75,257.1v.5c.32-.17.32-.33,0-.5ZM189,276.6c-.92-.9-4.89,4.47-3.99,6l3.99-6ZM226,280.1c-1.42.6-3.85.6-3.5,2.99l7.5,2.51c2.39,2.36,6.36,4.75,9.73,5.02,1.77.14,5.53.23,6.17-1.87,1.45-4.71-5.05-3.16-7.91-3.89-1.18-.3-5.84-2.95-7.11-3.75-.73-.46-.67-1.58-2.23-1.92-2.26-.5-2.11.69-2.64.91ZM216,287.1c.56-.88.88-3.45,2-4.49l-2.07.68c-7.7,6.54-18.75,16.12-24.92,24.08-1.87,2.41-3.14,5.09-3.01,8.24,2.51-3.48,6.16-5.17,9.25-7.99-.56,1.07-1.16,3.11-1.75,3.99-1.11,1.64-3.26,3.28-4.51,5.24-.88,1.38-1.95,3.06-1.99,4.76.73.77,3.4-3.2,3.98-3.76,1.61-1.55,3.07-3.28,4.52-4.73.06-.06.59.07.82-.17.82-.83,1.09-2.35,2.68-2.33,10.95,1.2,21.94,4.58,32.81,5.94,9.36,1.16,19.25,1.05,28.68,1.56.33-.3-2.57-6.33-4.08-6.16l-53.92-10.33c1.74-4.07,2.51-3.88,5-7,6.8.93,13.24,4.21,19.9,5.85,7.75,1.91,16.17,2.74,24.1,3.64.6-.58-2.62-4.44-3.23-5.02-4.01-3.79-17.67-5.94-23.65-7.85-3.61-1.15-7.21-2.47-10.62-4.13ZM174.5,310.6c-.09,3.93,1.76,8.8,1,13h1.49c.29-5.86,2.23-12.94,1.46-18.72-.16-1.18-.72-1.58-.96-2.29s-.06-1.97-.75-2.5c-2.5,2.52-4.57,7.26-2.25,10.5ZM219,328.6c2.87.07,8.11,1.87,11.4,2.35,11.46,1.69,22.99,2.62,34.61,2.65-.1-2.13.55-7.63-1.61-8.64-9.99-1.5-20.07-2.97-30.14-3.86-6.46-.57-13.02-.59-19.49-1.01-2.27-.15-16.58-1.78-17.29-1.28-1.15,2.34-.19,5.26.06,7.76,4.65.26,10.63.05,15.13,1.14.76.18,1.53.7,1.85,1.38.99,2.1.32,4.71.5,7-2.14-.14-14.75-2.16-15.5-1.5.54,4.5,3.1,5.34,6.13,7.51.4.29.35.93.4.96.53.32,1.63-1.02,2.71-1.02.61,0,5.29,1.7,7.07,1.99,8.08,1.31,18.27,2.45,26.44,3.06,1.57.12,3.17-.06,4.75,0-.15.92-.2,3.18.49,3.76,1.68,1.41,12.45,2.74,15.18,3.17l.83-1.16-2.5-4.28c.84.05,2.14.23,2.76-.49.93-1.1,1.23-5.46,1.24-7.01,4.92-3.02,10.81-6.79,8.63-13.4-.16-.49.09-1.5-.87-1.1-.79.33-3.15,4.99-4.26,6.24-.56.63-2.32,2.23-3,2.75-1.78,1.39-6.3,4.09-8.5,4-.85-.03-2.63-.82-3.81-.94-11.76-1.2-23.4-1.79-35.19-2.56.54-2.44-.34-6.14,2-7.5ZM193.99,344.1l-.24-21.5c-3.52,6.18-4.35,11.88-1.64,18.64.32.8,1.07,2.49,1.88,2.86ZM175,347.1c-.48,3.9-.15,7.45,1.48,11.27.22.51.33,1.16,1.02,1.23.02-1.02.48-1.98.51-3,2.7-.46,2.33,4.84,3,6.5-.67-.15-1.29-.5-2-.5,0,9.12,4.59,6.82,10.72,7.53,1.16.13,2.61,1.6,3.77.73-1.32-1.62-4.96-7.24-7-7.25-.39-3.31-2.45-6.14-3.51-9.24-1.37-3.97-3.25-9.75-4.24-13.76-.88-3.55-.21-5.9-.25-9.5-1.01.19-.81,1.06-.99,1.75-1.13,4.31-1.96,9.79-2.5,14.25ZM284,344.6l-4,.22c-2.02,3.05-3.31,7.56-5.78,10.26-2.37,2.59-8,2.76-8.26,7.29-.39,6.7,4.87-1.48,6.26-2.78,3.89-3.63,8.23-5.59,11.77-10.48,2.37-3.27,4.32-7.42,2.12-11.36-.32-.57.03-.85-1.12-.64.14,2.53-.73,5.03-1,7.5ZM194.5,362.59l-3.1-7.15-7.4-9.85c.92,5.02,3.5,10.47,6.98,14.26.42.46,3,3.29,3.51,2.73ZM194.75,363.1v.5c.32-.17.32-.33,0-.5ZM210.5,404.1c-4.88,1.7-6.87,4.49-4.49,9.5,2.5-.17,1.1-3.56,1.72-5.53.51-1.61,2.66-2.23,2.77-3.97ZM222.5,408.1c-6.27-.63-11.11,3.89-9.02,10.27,1.8,1.32,6.84-5.58,7.61-6.94.3-.54,1.72-3.06,1.41-3.33ZM202.5,409.1c-7.29,2.15-13.26,9.14-12.99,16.99l12.99-16.99ZM198.5,417.6c-3.27-.08-.66,7.14,1,5.5l-1-5.5Z"/>
  <path class="cls-1" d="M277,75.1c.16-.17.35-.32.5-.5-.03.15-.47.36-.5.5Z"/>
  <path class="cls-1" d="M282,69.1c-.35.09-3.64,4.52-4.5,5.5.03-.16-.02-.34,0-.5s0-.33,0-.5.02-.34,0-.5c1.6-1.02,2.24-2.84,3.49-4.26.67-.76,1.17-1.3,1.01.26Z"/>
  <path class="cls-5" d="M404.5,266.6c-4.37,5.5-8.73,11.57-12.91,17.34-3.33,4.6-7.04,11.36-10.6,15.4-.58.65-1.03,1.23-2,1.25-1.21-2.27-7.84-15.3-8.73-16.02-.44-.35-.7-.85-1.28-.25l-18.9,36.14c-.6,3.49,5.02,7.29,4.41,8.12-2.51,1.28-10.95,1.7-11.8,4.49-.61,2.01,2.31,6.06,3.3,8.01.26,1.12-2.01,1.72-2.75,2-3.78,1.45-9.15,2.38-11.75,5-.33.33-.63.72-1,1-2.19,1.66-6.89,3.83-9.54,5.21-.82.43-1.43.92-2.46.79-2.59-4.71-5.36-9.45-8.25-13.99l-15.54,29.49c-.38.98-.07,2.08.29,3l-11.01,9.24c-2.42,5.86-5.08,9.61-11.99,9.76.93-1.12,1.39-1.85,2.5-3-.28,1.42.73,1.15,1.64.9,1.83-.51,3.47-2.6,2.86-4.4-.08-.23.11-.67-.02-.98-4,.55-7.95,4.43-8.48,8.48-1.24-1.55-3.96-3.23-5.25-4.99-1.34,1.52-2.52,3.5-2.2,5.66.46,1.41,1.87.33,2.48.59,2.07.89,3.59,6.11,3.35,8.35-.79,7.54-12.54,19.72-20.41,17.16-1.81-.59-1.91-2.32-.83-3.63.92-1.1,7.31-4.14,9.36-5.89,5.98-5.09,6.86-10.89,1.24-16.75-1.01-.21-.61.25-.85.64-1.82,2.98-5.51,10.19-7.88,12.12-1.58,1.29-2.74,1.01-4.2,1.8-2.79,1.52-7.41,5.78-10.32,7.93-2.64-.45-1.15-3.05-.02-4.27,1.74-1.89,1.6-1.25,3.02-3.73,2.4-4.17,7.56-6.77,10.76-10.49,1.24-1.44,2.05-3.39,3.24-4.76,1.08-1.23,2.75-1.7,3.5-3.25.11-.08.39.08.5,0,1.65-1.2,2.58-2.23,4-3.5.18-.16.33-.34.5-.5,1.36-1.29,3.01-2.33,4-4,.23-.09.7.06,1,0,.02.79-.05,2.82.99,3,.02-2.47.15-6.77,1.29-8.96.89-1.7,8.16-7.44,10.23-9.77,4.21-4.77,12.68-17.86,12.99-24.03s-4.62-7.4-5.4-10.08c-.94-3.22-.45-8.43-1.1-12.15,17.11-18.71,36.04-37.98,60-47.5-.77,1.1-3.16,8.84-2.5,9.5,7.54-.84,12.36-6.21,11.5-14,14.04-4.07,25.98-6.02,40.67-3.92,3.5.5,6.97,1.33,10.33,2.42ZM326,315.6c-.13.35-1.78,4.68-.26,4,.52-.23,1.08-1.34,1.79-1.71,1.76-.91,3.06-.71,4.73-2.27,1.76-1.64,1.79-3.23,2.73-5.02.26-.49,1.89-1.27,1.5-2.5-5.45.58-8.61,2.25-10.5,7.5Z"/>
  <path class="cls-1" d="M270.5,393.6c.54-4.04,4.48-7.92,8.48-8.48.13.31-.06.75.02.98-1.96.5-3.21,2.16-4.5,3.5-1.11,1.15-1.57,1.88-2.5,3-.23.28-.4.87-.76,1h-.74c1.81,2.26,2.96,6.13,3,9,.53.6,7.4-6.06,8.85-6.39,1.37-.31,2.98-.06,4.39-.1l9.76,1.49c-.08.08.2.72-.61,1.16-1.96,1.06-10.04,3.34-10.39,5.84-3.84-2.06-7.22,1.81-9.98,2.77s-2.56-.76-4.52,2.73c-.19.34-.33.69-.5,1-.18.16-.34.33-.5.5-1.94,2.04-2.44,5.46-.53,7.66.45.52,1.31.31,1.98,1.13,1.02,1.23,1.47,3.34,2.05,4.71,2.03.3,2.07,2.2,1.99,4-1.14-.75-1.5-2.83-1.99-4-.82-.12-1.07-.21-.97.71.29,2.56,1.75,5.94,2.34,8.66.27,1.24-.04,2.53.23,3.77,1.04,4.71,2.42,5.85.39,11.36l-.5-2.5c-.92-.25-.78.24-1,.5-.74.89-1.11,2.39-3.21,1.91-.81-.18-1.97-3.06-2.39-3.3-.81-.46-2.84.08-3.9-.11.86-2.75,2.77-7.35.16-9.45-.91-.28-7.48,2.02-8.79,2.57-.99.41-1.76,1.12-2.37,1.38-1.99.86-3.6,1.93-5.51,2.74-2.99,1.26-7.37,1.94-10.01,3.49-3.59,2.1-.54,2.96,2.27,2.77,4.67-.32,9.55-2.33,14.26-2.49,3.23-.11,6.63,1.33,10-.5-.35,1.02-.85,2.5-1.38,3.38-.66,1.09-3.8,2.53-1.12,4.12-5.34-.55-12.65,3.94-17.53,5.8l.85,2.14c4.4.13,13.21,2.06,16.18-1.93,1.27,2.85-.78,3.17-1,5.5h1.5c.19,1.59-.71.31-1,2,.33.02.67-.02,1,0-.17,2.49-1.91,5.5-4.5,6,2.12-1.63,3.07-3.47,3.5-6-5.22-.25-11.12,3.76-15,7-.69-3.14,1.45-1.39,2.06-2.29.4-1.63.38-3.53,2.43-3.72.12-1.57-1.06-1.42-2.22-1.52-8.73-.73-26,3.79-35.08,5.48-3.13.58-13.45,2.7-15.84,2.05-.73-.2-3.88-4.23-2.34-5.24l1.41-.33c.25-3.73-2.03-5.93-1.93-9.93,5.46-.43,9.79-1.69,14.64-4.13.53-.26.76-.82.86-.87,1.2-.62,2.7.42,3-2.26.14-1.28-1.55-.71-2.5-.74-6.69-.26-14.7-1.55-16,7-2.43-3.16,1.18-8.8,4.48-9.77,1.11-.33,3.28.05,3.8-.7l1.23-4.3-.49-1c-1.42-.97-12.99,4.52-15.9,3.9-2.27,2.7-3.03,6.06-4.7,9.05-.41.73-1.18,1.17-1.63,1.87-.93,1.44-1.99,6.18-4.82,4.23-1.24-.85.01-2.03.03-2.28l2.48.99c.39-2.82,1.49-6.61,3.02-8.99,8.87-13.86,26.04-4.33,33-20,2.18.61,5.41-4.12,6.75-1,.62-2.63,3.38-3.48,4.5-5,.54-.73.58-1.76,1.06-2.44,2.14-3.05,4.75-3.88,7.69-6.06s7.54-6.41,10.32-7.93c1.46-.8,2.62-.51,4.2-1.8,2.37-1.94,6.05-9.14,7.88-12.12.24-.39-.16-.85.85-.64,5.63,5.86,4.74,11.66-1.24,16.75-2.05,1.74-8.44,4.78-9.36,5.89-1.09,1.31-.98,3.05.83,3.63,7.87,2.55,19.62-9.62,20.41-17.16.23-2.24-1.28-7.46-3.35-8.35-.6-.26-2.02.82-2.48-.59-.32-2.16.85-4.14,2.2-5.66,1.29,1.76,4.01,3.44,5.25,4.99ZM254,431.6c2.48.12,7.53.05,8.64-2.65,2.11-5.13-10.59-2.68-8.64,2.65Z"/>
  <path class="cls-3" d="M153.5,411.1c5.69.39,12.9,1.91,18.51,3.24,4.93,1.17,9.66,2.81,14.49,4.26-1.44,4.08-1.36,8.85-2.61,12.64-.66,1.99-2.48,4.43-3.47,6.53-.91,1.93-1.41,4.44-2.3,6.2-.59,1.17-.71.56-1.61.13-.02-2.97-11.86-22.43-14-26.5-.34-.64-.11-3.9-1.74-1.98-.57.67-.49,1.5-.76,1.98-5.7,10.12-10.85,20.56-16.06,30.94l-3.91-.47c-1.17-3.73,6.85-8.99.47-10.48v-1c-.33-.08-.72.06-1,0-1.89-.41-3.66-.94-5.5-1.51-.48-.63,2.57-3.2,2.87-4.36.28-1.09.17-2.25.1-3.36-3.2-4.97-5.26-10.57-7.98-15.77,8.1-.19,16.38-1.05,24.5-.5Z"/>
  <path class="cls-5" d="M117.5,406.6c-1.36,2.61-2.66,5.36-4,8-3.88.51-6.42,2.31-10.5,2.5-2.05-4.02-1.58-1.6-2.5,0s-2.11,3.33-3,5c-1.69-1.72-1.84-2.05-4-3-.59-.26-1.38-.29-2-.5s-1.49-1.12-2.5-1c-.13-.12-.98-.04-1.26-.47-1.22-1.87.78-2.17,1.27-2.9,6.06-9.08.31-7.68-6.51-10.89,1.1-2.42,4.14-4.17,3.3-7.26-2.25-4.22-4.84-8.23-7.06-12.47s-5.39-9.89-6.74-14.51c1.35,1.05,4.2,2.24,5.86,3.39,9.95,6.87,19.24,14.14,27.9,22.6,3.91,3.82,7.15,8.64,11.74,11.51Z"/>
  <path class="cls-5" d="M69,366.1c-.22.6-.24,1.46-.5,2-3.46,7.16-7.96,14.45-11.75,21.5-3.1-4.53-5.04-9.77-7.75-14.5-.2-.36.49-1.27-.74-1-.56.12-.1.81-.26,1-1.38,1.76-2.72,3.95-3.73,6.03-.38.79-.09,1.81-.39,2.35-1.38,2.43-5.24-.71-5.89-2.63,1.63-1.25,4.27-4.21,4.51-6.25.39-3.28-.41-2.29-2-3-1.22-.55-2.61-1.49-4-1.5-.19-.53-.67-.38-1-.5-.98-.38-1.93-.9-3-1.01-.17-.24.5-1.45.5-1.99,1.16-.61,1.85-1.91,2.5-3,.98-1.64,1.8-2.27,1.5-4.5-.37-2.75-4.05-2.78-6-3.5-.26-.1-.6-.35-1-.5-.71-.28-1.47-1.08-2.5-1,.28-1.69,1.21-1.51,1.5-2,6.27,2.29,12.87,3.31,19.26,5.49,3.88,1.33,18.66,8.61,20.74,8.51Z"/>
  <path class="cls-5" d="M275,413.1c3.4,4.38,7.54,22.61,7.5,28.25-.06,8.18-3.89,14.23-7,21.25l-.5,1c-.06.14.06.36,0,.5l-2.46-.32c-.14-1.81.95-3.74.99-5.48.02-.71-.53-1.14-.52-1.2.03-.33-.03-.67,0-1h1s-.5-1-.5-1c.07-.65-.07-1.34,0-2h1s-.5-1-.5-1c.04-.33-.03-.67,0-1,1.41.05,1.18-.64,1.5-1.5,2.03-5.51.64-6.65-.39-11.36-.27-1.23.03-2.53-.23-3.77-.59-2.72-2.05-6.11-2.34-8.66-.1-.92.15-.83.97-.71.5,1.17.85,3.25,1.99,4,.08-1.8.04-3.7-1.99-4-.58-1.36-1.03-3.48-2.05-4.71-.68-.82-1.53-.61-1.98-1.13-1.91-2.2-1.41-5.62.53-7.66.18-.14.39-.3.5-.5.17-.31.31-.66.5-1,2.27-.32,1.99,1.4,2.79,2.48.38.52,1.16.46,1.21.52Z"/>
  <path class="cls-3" d="M295,373.6c.4,1.04,3.91,4.45,3.5,4.99l-10.41,3.09c-1.27,4.46,2.73,6.37,3.87,10.12l-3.96,2.3c3.78-.72,6.19,1.52,9.5,2.51.46,1.44-.85.83-1,.99l-9.76-1.49c-1.41.04-3.02-.22-4.39.1-1.45.33-8.33,6.99-8.85,6.39-.05-2.88-1.19-6.74-3-9h.74c.35-.13.53-.72.76-1,6.91-.15,9.57-3.9,11.99-9.76l11.01-9.24Z"/>
  <path class="cls-3" d="M364.5,342.6c.22-2.35.7-3.27,2.09-5.16,4.68-6.42,12.36-8.07,19.91-8.33-3.83,10.45-7.15,14.22-18.5,15,1.04-2.75,4-3.73,6.23-5.52.92-.74,2.68-1.74,2.77-2.98-4.63,1.46-7.62,6.07-12.5,7ZM377.75,335.1v.5c.32-.17.32-.33,0-.5Z"/>
  <path class="cls-3" d="M107,442.6c.02-.33-.03-.67,0-1,1.83-1.36,12.35,5.61,14.88,6.11,1.56,3.67,3.55,6.93,5.36,10.39,1.34,2.55,4.12,4.05.26,4.99-5.65-3.33-12.92-6.24-15-13,.68-.68,5.48,2.85,6.45,3.29.76.35,1.22.47,1.04-.54l-13-10.26Z"/>
  <path class="cls-1" d="M135,488.6c3.93-.55,7.02-3.16,10.52-4.73,2.21-.99,4.51-1.47,6.69-2.34.76-.3,1.54-.34,1.3-1.43,1.48,0,5.28-.69,5.84,1.32,1.05,3.76-5.49,7.54-8.5,8.77-5.53,2.25-10.72,1.14-15.84-1.59Z"/>
  <path class="cls-3" d="M272,484.6c7.82,3.11,11.16,7.97,11.5,16.5-5.31-1-11.9-3.55-15.51-7.75-.37-.43-.33-1.03-.48-1.25l6.53,1.22c1.74.86,4.08,3.62,5.73,4.28,2.69,1.06-2.63-4.15-3.02-4.48-3.75-3.18-8.56-6.43-12.74-9.01-.23-1.16-.41-.88,0-2,2.55.9,5.53,1.52,8,2.5Z"/>
  <path class="cls-3" d="M289.5,469.6c.81-6.71,4.22-12.56,10.34-15.91.81-.44,4.2-1.99,4.92-2.09,1.28-.19.79,1.84.69,2.69-.87,7.4-4.17,14.27-12.44,14.81,2.59-3.34,6.69-6.33,7.75-10.49-4.07,3.35-6.82,8.15-11.25,10.99Z"/>
  <path class="cls-3" d="M343.5,411.1c-.9.07-.92,1.44-1,1.5-1.25.99-5.77,3.97-7.34,4.91-.39.23-4.97,2.78-4.16.85.65-1.55,3.9-2.72,4.76-3.75,2.03-2.43-4.19,1.14-4.78,1.71-1.27,1.23-1.03,2.32-1.63,3.12-.42.57-2.09.97-2.35,2.15-1-.02-2.16,1.19-2.99-.24,1.95-6.6,5.69-11.14,12.48-13.01,1.39-.39,7.13-1.41,8.25-1.27.66.09,1.42.54,1.26,1.27-.73.91-2.02,1.69-2.5,2.76ZM336.75,413.1v.5c.32-.17.32-.33,0-.5Z"/>
  <path class="cls-1" d="M304.5,485.6c1.04-.93,2.63-.32,4.02-.73,1.19-.35,2.87-2.11,4.28-2.72.62-.27,2.65-1.22,2.69-.06-.68.21-5.32,2.78-4.49,3.5l13-1.5c.44.54,2.27.59,2,3.24-.22,2.18-6.75,4.07-8.76,4.25-6.28.59-9.26-1.37-12.75-5.99Z"/>
  <path class="cls-1" d="M107,442.6l13,10.26c.18,1.01-.28.88-1.04.54-.97-.44-5.77-3.97-6.45-3.29,2.08,6.76,9.35,9.67,15,13-3.69.9-10.18-1.53-13.26-3.99-5.26-4.19-7.59-9.78-7.24-16.51Z"/>
  <path class="cls-5" d="M264.5,446.1c-.05.15.05.35,0,.5-3.37,1.83-6.77.39-10,.5l-2.04-1.79,1.04-4.71c.61-.26,1.38-.97,2.37-1.38,1.32-.55,7.88-2.85,8.79-2.57,2.61,2.09.7,6.7-.16,9.45Z"/>
  <path class="cls-3" d="M202,481.1c.33-.01.66-.02,1,0,.29.39-.71,2.41-1,3-.95.21-.75.99-1,1.5-.12.26-.41.88-.5,1l-1,1c-3.55,3.57-7.05,5.03-11.5,7l2.99-3.76,6-4.24c-4.18-.15-8.56,4.09-10.51,7.49l-.99-1.5c.05-.49-.06-1.02,0-1.5.87-.45.73-1.33,1-2,.77-1.92,1.28-2.78,3-4,3.23-2.28,8.58-3.85,12.5-4Z"/>
  <path class="cls-3" d="M262,454.1c.61.06.61.07,1,.5l-.5,3c-.29.71-.63,2.01-1,2.5-2.97,3.99-11.79,2.06-16.18,1.93l-.85-2.14c4.88-1.85,12.19-6.35,17.53-5.8Z"/>
  <path class="cls-5" d="M261,467.6c-.43,2.53-1.38,4.37-3.5,6-1.87,1.44-4.41,1.67-6.13,2.62-2.74,1.52-5.15,3.72-8.14,4.8l-.74-.92c1.49.31,1.31-1.44,1.5-2.5.03-.16-.02-.34,0-.5h1s0-1.5,0-1.5c.27-.23.57-.64,1-1,3.88-3.24,9.78-7.25,15-7Z"/>
  <path class="cls-3" d="M324,484.1l-13,1.5c-.83-.72,3.81-3.29,4.49-3.5-.05-1.16-2.08-.21-2.69.06-1.4.61-3.09,2.38-4.28,2.72-1.4.41-2.98-.21-4.02.73-.09-.12-1.32.42-1-.74,4.8-6.61,13.29-8.28,19.53-2.53.78.72.74,1.49.97,1.77Z"/>
  <path class="cls-5" d="M210.5,451.1l-.5,3c-.1.05-.33.61-.86.87-4.85,2.44-9.18,3.69-14.64,4.13,0-.33-.05-.69,0-1,1.3-8.55,9.31-7.26,16-7Z"/>
  <path class="cls-3" d="M285.5,404.6c-.05.38.45,1.16.29,2.02-.75,4.06-7.82,4.64-10.79,6.48-.05-.06-.82,0-1.21-.52-.8-1.07-.52-2.8-2.79-2.48,1.96-3.48,1.64-1.72,4.52-2.73s6.14-4.83,9.98-2.77Z"/>
  <path class="cls-3" d="M346,341.1c.19.38,1.69.96.93,2.44-3.67,2.15-11.06,1.47-9.2,7.58.74,2.45,6.41,5.95.96,7.92-.91.33-.58-.21-.8-.58-1.59-2.78-2.96-6.16-4.62-8.88-.47-.77-.58-1.54-1.77-1.48,2.61-2.61,7.97-3.54,11.75-5,.74-.28,3.01-.89,2.75-2Z"/>
  <path class="cls-3" d="M330.5,349.1l-7.01,14c-.72.16-.81-.07-1.22-.52-1.62-1.77-2.63-5.41-3.77-7.48,1.03.14,1.64-.36,2.46-.79,2.65-1.39,7.35-3.56,9.54-5.21Z"/>
  <path class="cls-3" d="M159,456.6l3.5,10c.02.17-.04.37,0,.5l1,1.5c.16.18.34.33.5.5l1.5,2c.35.83.94,1.55,1,2.5-.27-.06-.68,0-1,0-.33,0-.67,0-1,0-.97-1.01-1.5-1.74-3-2-.49-1.41-2.25-2.7-3-4l-.5-1c-.05-.15.05-.34,0-.5-.71-2.41-1.14-4.98-1-7.5.18-.64.23-1.34.59-1.93.46-.2.94-.07,1.41-.07Z"/>
  <path class="cls-1" d="M337.4,453.7c1.53-.15,7.09.52,5.62,2.65-2.18,3.16-6.05,4.21-9.71,3.69-6.38-.91.44-5.98,4.1-6.34Z"/>
  <path class="cls-1" d="M3,340.6c3.94-7.59,7.69-15.32,11.56-22.94h1.39c1.27,2.81,2.62,5.72,4.06,8.44-2.76-1-2.48-5.78-6.37-3.37l-6.68,15.07-3.95,2.8Z"/>
  <path class="cls-3" d="M113.5,414.6c-1.8,3.55-3.35,7.37-5.01,11-1.19.27-.8-.2-1.11-.65-1.95-2.84-2.84-4.83-4.39-7.85,4.08-.19,6.62-1.99,10.5-2.5Z"/>
  <path class="cls-1" d="M343.5,411.1c-.99,2.2-.49.83-1,1.5-.09.12-.03,1.77-.77,2.98-2.53,4.11-8.94,6.23-13.52,6.54-.67.05-1.13-.52-1.21-.52.26-1.18,1.93-1.58,2.35-2.15.6-.81.36-1.9,1.63-3.12.6-.58,6.82-4.15,4.78-1.71-.86,1.03-4.1,2.19-4.76,3.75-.81,1.93,3.77-.61,4.16-.85,1.57-.94,6.09-3.92,7.34-4.91.08-.06.1-1.43,1-1.5Z"/>
  <path class="cls-1" d="M264,484.1c4.17,2.58,8.99,5.83,12.74,9.01.39.33,5.72,5.54,3.02,4.48-1.65-.65-3.99-3.42-5.73-4.28l-6.53-1.22c-1.99-2.84-2.81-4.5-3.5-8Z"/>
  <path class="cls-1" d="M162.5,466.6l-3.5-10c2.25-.01,10.25,2.48,10.92,4.85.23.82.22,1.76-.75,2.08-2.76-.2-7.21-1.22-6.67,3.07Z"/>
  <path class="cls-3" d="M153.5,480.1c.24,1.09-.54,1.13-1.3,1.43-2.18.87-4.48,1.35-6.69,2.34-3.5,1.57-6.59,4.19-10.52,4.73.11-.97.86-1.33,1.5-2.5h1s0-1,0-1c1.05-.81,1.94-1.86,3-2.5l1-.5c.9-.48,1.53-.72,2.5-1,.42-.12.85-.47,1-.5,2.67-.56,5.77-.5,8.5-.5Z"/>
  <path class="cls-3" d="M275,464.1c-1.81,3.93-3.73,8.79-5.75,12.52-.38.7.04,1.23-1.25.97l5-20.5c0,.07.54.49.52,1.2-.04,1.73-1.13,3.67-.99,5.48l2.46.32Z"/>
  <path class="cls-3" d="M180.5,446.6c.19,1.53,0,3.73,1.5,4.5-1.52,2.38-2.63,6.17-3.02,8.99l-2.48-.99c.09-1.87-.01-3.67.5-5.5.57-2.03,2.43-5.08,3.5-7Z"/>
  <path class="cls-1" d="M293,469.1c-.12.15.09.84-.49,1.24-.42.29-3.35.91-3.51.76-.33-.76.48-1.32.5-1.5,4.44-2.84,7.19-7.64,11.25-10.99-1.07,4.16-5.17,7.15-7.75,10.49Z"/>
  <path class="cls-1" d="M364.5,342.6c4.88-.93,7.87-5.54,12.5-7-.09,1.23-1.84,2.23-2.77,2.98-2.23,1.79-5.19,2.77-6.23,5.52-1.01.07-2.35,1.22-3.8-.52-.45-.62.29-.92.3-.98Z"/>
  <path class="cls-1" d="M185.5,492.6l.99,1.5c1.94-3.4,6.32-7.64,10.51-7.49l-6,4.24-2.99,3.76c-.48.21-1.22,1.71-3,1-.5-1.1.45-2.44.5-3Z"/>
  <path class="cls-3" d="M97.5,422.1c-.65,1.23-1.9,5.26-2.75,6-.53.47-1.97.77-2.25.49-.95-.91,3.29-5.19,2.42-7.69-.27-.78-1.76-.58-1.43-1.81,2.16.95,2.31,1.28,4,3Z"/>
  <path class="cls-1" d="M202,481.1c-3.92.15-9.27,1.72-12.5,4-.15-1.33,1.12-3.55,2.36-3.91,1.42-.41,2.39.38,3.39.31,2.08-.15,4.87-1.41,6.75-.4Z"/>
  <path class="cls-1" d="M119,404.6c.58-1.11,1.72-5.02,2.76-5.5l2.24,3.5c-1.97-.15-3.21,1.57-5,2Z"/>
  <path class="cls-1" d="M37,359.1c-2.14-.82-6.74-.18-6-3.5,1.95.72,5.63.75,6,3.5Z"/>
  <path class="cls-1" d="M264,482.1c.1-.27-.3-.91.31-1.03,1.29-.3,7.45,1.46,7.69,3.53-2.47-.98-5.45-1.6-8-2.5Z"/>
  <path class="cls-1" d="M166.5,473.6c1.53.33,3.28,1.82,4.77,2.48l-1.02,1.53-4.75-4.02c.32,0,.73-.06,1,0Z"/>
  <path class="cls-1" d="M29.5,344.1c-1.8-.12-3.69-3.12-2.5-4.5.8,1.56,1.63,2.55,2.5,4.5Z"/>
  <path class="cls-1" d="M35.5,363.6c-.65,1.09-1.34,2.39-2.5,3,0-.07-.59-.53-.52-1.21.14-1.51,1.67-1.99,3.02-1.79Z"/>
  <path class="cls-1" d="M161.5,471.6c1.5.26,2.03.99,3,2-.34,0-1.13,1.04-2.67.04-1.25-.81-.3-1.93-.33-2.04Z"/>
  <path class="cls-1" d="M158,466.1c-1.32.42-1.38-2.14-1.44-2.81-.18-2.08-.1-2.8.44-4.69-.14,2.52.29,5.09,1,7.5Z"/>
  <path class="cls-1" d="M160,417.6c.27-.48.18-1.31.76-1.98,1.63-1.92,1.4,1.34,1.74,1.98h-2.5Z"/>
  <path class="cls-1" d="M42.5,374.6c-1.59-.02-2-1.7-2-3,1.59.71,2.39-.28,2,3Z"/>
  <path class="cls-1" d="M30.5,349.1l-1.5-.51,1-2.99c.03.08.84.24,1.01,1.26.22,1.28-.21,1.42-.51,2.24Z"/>
  <path class="cls-3" d="M274,447.6c.21-.26.07-.75,1-.5l.5,2.5c-.32.86-.09,1.55-1.5,1.5.1-1.15-.07-2.35,0-3.5Z"/>
  <path class="cls-1" d="M30,355.1c-.35,1.15-1.48,1.07-2.5,1,.05-.64-.1-1.39,0-2,1.03-.08,1.79.72,2.5,1Z"/>
  <path class="cls-1" d="M69,366.1c.27-.01,1.16-.76,1.49-.5.1.07.29,1.58.51,2l-2.5.5c.26-.54.28-1.4.5-2Z"/>
  <path class="cls-1" d="M103,417.1c-.83.04-1.67-.03-2.5,0,.92-1.6.45-4.02,2.5,0Z"/>
  <path class="cls-1" d="M26,337.6c-1.5.13-2.12-2.26-2-3.5.49.95,1.33,2.2,2,3.5Z"/>
  <path class="cls-1" d="M244,477.6c-.19,1.06,0,2.81-1.5,2.5l.58-2.43.92-.07Z"/>
  <path class="cls-1" d="M91.5,418.6c-1.92,1.24-2.25-.77-2.5-1,1.01-.12,1.9.79,2.5,1Z"/>
  <path class="cls-1" d="M186.5,489.1c-.27.67-.13,1.55-1,2,.08-.64-.07-1.35,0-2h1Z"/>
  <path class="cls-1" d="M245,475.6v1.5s-1,0-1,0c.06-.44-.18-.97.09-1.42.23-.25.82-.01.91-.08Z"/>
  <path class="cls-1" d="M164,469.1c.24.25,1.19.29,1.4.6.31.46,0,1.15.1,1.4l-1.5-2Z"/>
  <path class="cls-3" d="M274,452.1l.5,1h-1c.09-.88.49-.94.5-1Z"/>
  <rect class="cls-1" x="272" y="452.6" width=".99" height=".99"/>
  <path class="cls-3" d="M273.5,455.1l.5,1h-1c.08-.87.49-.94.5-1Z"/>
  <rect class="cls-1" x="268" y="469.6" width=".99" height=".99"/>
  <path class="cls-1" d="M145,480.6c-.15.03-.58.38-1,.5v-1s.74,0,.74,0l.26.5Z"/>
  <path class="cls-1" d="M137.5,485.1v1s-1,0-1,0c.85-1.56.23-.4,1-1Z"/>
  <path class="cls-1" d="M36.5,370.1c-.07,0-.5.72-.99.5v-1c.31.12.8-.03.99.5Z"/>
  <path class="cls-1" d="M48,375.1c.15-.2-.3-.88.26-1,1.24-.27.54.65.74,1h-1Z"/>
  <path class="cls-1" d="M139.5,436.6c.28.06.67-.07,1,0v1c-.27-.06-.67.07-.99,0v-1Z"/>
  <path class="cls-1" d="M262.5,457.6l.5-3c1.11,1.24-.08,1.97-.5,3Z"/>
  <path class="cls-1" d="M23,332.1l-.5-1c.18.33.33.67.5,1Z"/>
  <path class="cls-3" d="M275,463.6l.5-1c-.17.39-.37.7-.5,1Z"/>
  <path class="cls-1" d="M158.5,467.6c-.23-.4-.32-.48-.5-1l.5,1Z"/>
  <path class="cls-1" d="M163.5,468.6l-1-1.5c.02.05.56.16.74.5.19.37.21.94.26,1Z"/>
  <path class="cls-1" d="M141.5,482.1l-1,.5c.38-.23.69-.33,1-.5Z"/>
  <path class="cls-1" d="M201,485.6c.25-.51.05-1.29,1-1.5-.27.56-.43,1.14-1,1.5Z"/>
  <path class="cls-1" d="M72,369.1c-.03-.1-.43-.28-.5-.5.08.09.42.44.5.5Z"/>
  <path class="cls-1" d="M199.5,487.6l1-1c-.42.56-.64.64-1,1Z"/>
  <path class="cls-4" d="M443,223.1c-13.37,13.23-26.95,28.97-38.5,43.5-3.36-1.09-6.83-1.92-10.33-2.42-14.68-2.1-26.62-.15-40.67,3.92-.15.04-.35-.05-.5,0l-.25-.49-.25.49c-2.14.64-6.75,2.71-8,4.5-23.96,9.52-42.89,28.79-60,47.5-.57-3.27-2.7-9.04-4.23-12.02-1.39-2.72-5.6-6.88-6.31-8.69-.83-2.13-.57-5.75-1.2-8.3-1.83-7.53-7.14-12.43-12.76-17.24l1-.25c7.55-1.3,9.12-7.64,11-14-8.15.77-15.44,2.5-13.5,12.5-.17.06-.39.67-.97.3l-12.03-5.3c.01-.75-1.34-4.15-1.63-4.4-.36-.3-1.23,0-1.36-.11-.11-.1.18-2.84.24-2.97.94-2.08,10.62-6.67,12.75-9.52,3.34-1.04,6.4-3.63,9.5-5,1.72,1.63,3.31,9.15,5.25,9.5,1.38.25,4.44.08,6,0,17.04-.98,36.46-9.71,49.49-20.51,12.92-10.71,19.98-17.84,36.26-24.49.08-.03.22-.47.5-.5.16-.02.74.53,1.5.29,14.93-4.7,28.06-6.11,43.6-3.14,12.63,2.41,25.78,8.33,35.4,16.85ZM387.5,241.6c3.79.57,9.04-1.89,10.5-5.5.15-.37.81-.71.5-1.5-3.17-1.12-6.58-.4-9.34,1.4-1.77,1.15-5.01,5.09-1.65,5.6ZM347.88,259.22l-.99-.04c-3.55.8-6.89,3.06-8.39,6.42,4.23-.08,11.4.54,12-4.99-1.05-.24-2.33-.19-2.62-1.38Z"/>
  <path class="cls-3" d="M185,80.6c-.03-.09-.86-.56-1.17-1.57-1.33-4.38,1.55-5.91,1.66-9.93-1,0-1.66,5.71-2.99,4.5-1.15-1.05-.49-9.14-.51-11l-.99.99-1.01-4.99c-.86-.13-.53,1.18-.49,1.73.19,2.44.41,5.01.62,7.37.19,2.11,1.11,4.2.86,6.39-1.63-1.31-1.61-3.41-2.87-5.39-2.06-3.22-1.77-3.33-2.89-7.12-.25-.82.1-1.78-1.23-1.49.2-.88,1.19-1.77,1.51-2.74.75-2.26,1.28-4.59,2.24-6.77,4.92,4.31,9.04,8.35,10.51,14.99,1.19,5.36.13,10.64-3.27,15.02Z"/>
  <path class="cls-3" d="M362.5,209.1c-.28.03-.42.47-.5.5-5.96-.98-13.02.06-16.72-5.53-.8-1.21-1.27-3.21-1.78-3.97.49-.77.53-1.22,1.63-.93,2.33.62,6.51,4.15,9.17,4.89.93.26.74-.24.69-.95-3.6-1.78-7.13-3.72-10.68-5.6-.7-.37-1.58-.2-1.32-1.41,2.05.09,3.69-.61,5.68-.46,7.25.56,10.31,8.19,13.82,13.46ZM355.75,204.1v.5c.32-.17.32-.33,0-.5Z"/>
  <path class="cls-3" d="M229.5,140.6c3.45,10.27,14.47,12.44,24,10,.78-.67-2.45-2.71-3-3,2.26.22,2.55-2,4.86-1.86,2.02.12,7.06,6.25,7.64,8.12.63,2.05-3.21-.89-3.56-1.02-.68-.25-.89.27-.94.26-3.24-.38-3.97.68-6.97,1.28-4.77.94-8.38.75-13.03-.78-.64-.21-2.74-.85-3-1-.86-.5-4.48-4.09-5.21-5.04-1.41-1.84-2.6-4.24-3.29-6.46.19,0,1.32-.52,2.5-.5Z"/>
  <path class="cls-3" d="M183.5,148.1c-.46,2.78,1.65.82,3,1,1.08.84-12.8,7.16-13.5,8.25,2.14,1.31,11.03-5.76,11.49-5.25-.37,2.69-3.62,4.41-3.5,7.5-3.1,1.35-7.34,1.9-10.73,2.02-1.09.04-5.14.41-4.76-1.25,2.53-2.58,4.81-6.17,7.48-8.53,3.85-3.4,5.67-3.31,10.51-3.74Z"/>
  <path class="cls-3" d="M280.5,127.1c.88-1.2,1.38-2.48,2.49-3.76,4.64-5.35,10.2-5.91,17.01-5.74-2.19,5.47-6.07,11.48-12.38,12.37-1.9.27-3.94-.14-5.62.13-.12-1.08.2-1.58,1.02-2.24,2.61-2.11,7.72-2.84,9.98-5.76-4.49.54-7.92,5.12-12.5,4.99Z"/>
  <path class="cls-3" d="M350,187.6c.29-10.7,8.67-13.66,18-14-.7,4.09-1.68,8.41-4.5,11.5l-6-.5c-.88-.79,5.15-4.75,5.5-5.75.07-.38-.47-.31-.75-.26-.35.07-5.35,3.5-5.99,4.01-2.4,1.89-3.6,3.14-6.25,5Z"/>
  <path class="cls-3" d="M174,111.1c-1.46,2.45.79,4.45,1.47,6.78.28.94,1.31,6.34,1.02,6.72-2.5-.55-1.22-3.81-1.84-6.41-.67-2.82-2.71-4.13-3.67-6.59-2.67.25.05,1.19.45,1.79,1.86,2.83,2.7,6.37,3.06,9.7-.46.49-5.37-3.15-6-4-1.23-1.66-4.12-8.86-4.4-10.88-.31-2.25,1.26-3.41.9-5.61,4.27,1.21,6.71,5.08,9,8.5ZM169.25,110.11c-.49.35.27.69.51.98.5-.33-.23-.66-.51-.98Z"/>
  <path class="cls-3" d="M320,67.1c5.75-8.64,17.79-6.91,26.5-4.49.58.77-8.03,6.44-9,6.99l.5-2.5h-3s.99-1,.99-1l-8.24.5v-1c-2.35,1.9-5.04,1.36-7.76,1.49Z"/>
  <path class="cls-3" d="M158,112.6c-6.95-5.65-12.8-10.58-20.24-16.01-.9-.66-2.62-1.81-2.76-2.99.55.12,1.36-.07,2.11.12,10.21,2.57,20.79,6.48,20.89,18.88Z"/>
  <path class="cls-3" d="M215,78.6c1.68-3.15,1.52-6.84,3.06-10.19,2.26-4.89,7.47-8.15,12.43-9.81-.07,1.99.11,4.01,0,6l-1-.74c-.91,2.89-6.25,10.66-8.76,11.74-.61.26-.94-.11-.74-.74l3.49-5.52c.25-.87-.37-1.03-1-.5-2.31,1.93-3.75,7.71-6,10-.48.49-.66.95-1.49.75-.02-.33,0-.66,0-1ZM224.5,68.1l.26-1.99-1.25,1.25v.74s.99,0,.99,0Z"/>
  <path class="cls-3" d="M281.5,91.6c.62-4.68,2.95-9.75,7.22-12.03,1.96,2.82,3.41,6.6,3.78,10.03.05.49,0,1.01,0,1.5.01.64.07,1.38,0,2l-.99-1.5-3.5,6.99c-.08-2.62-.34-5.13,1.48-7.25l-1.48.76v-6c-.79-.01-.84,1.73-.94,2.31-.53,3.2-.3,6.52-1.07,9.68l-4.49-6.5Z"/>
  <path class="cls-3" d="M324,137.6c-6,5.33-15.76,11.22-21.02,16.73-4.42,4.63-7.98,12.01-11.48,17.27-.03.04-.71-.12-1.02.34-1.43,2.16-2.4,5.1-4.48,6.66.87-9.6,6.87-19.44,13.48-26.26.57-.58,1.08-1.39,2.01-1.24l.57,1.93c2.45.72,1.75-.77,2.7-1.9,5.58-6.69,11.38-9.91,19.23-13.53Z"/>
  <path class="cls-3" d="M250,105.6l-.75,2c-1.16-1.67-2.19-3.43-3.49-5.01-1.07-1.3-2.8-1.43-2.77-3.49l-.98.99c.36-.02.77.03.99.35,1.33,1.97,2.65,3.95,3.99,5.91l-2.49-.51,7,6.25c.1.33,2.63,4.81.76,4-.65-.28-1.42-1.73-2.29-2.21-1.64-.9-3.15-.94-5.13-2.37-1.73-1.25-5.34-5.64-5.34-7.66v-7.75c5.72,1.41,8.78,3.85,10.5,9.5Z"/>
  <path class="cls-3" d="M335.5,189.6c-.26-5.62-.42-8.17,4.67-11.08,2-1.15,4.27-1.88,6.33-2.91.05,4.03-.03,9.66-3,12.74-1.01,1.05-2.95,1.24-3,2.76-.59.02-4,.46-3.5-.74,1.92-1.84,3.95-3.97,4.25-6.75-1.59,1.74-2.99,3.7-4.55,5.46-.42.47-1.17.47-1.2.53ZM343.5,180.6h-.99s-.5,1.99-.5,1.99l1.48-1.01v-.99Z"/>
  <path class="cls-1" d="M198.5,109.6c-.44-.08-1.15.12-1.5,0-.55-.19-.74-.98-2.25-1.03-3.78-.12-4.79,2.29-9.22-.24-1.41-.8-4.96-5.07-5.52-6.49-.45-1.15,3.01-1.23,3.72-1.26,8.64-.43,10.04,2.98,14.77,9.02Z"/>
  <path class="cls-3" d="M193,75.1c.17-.47-.45-1.27.7-.96s5.4,2.62,6.64,3.37c5.18,3.12,7.24,5.11,9.03,10.99.26.85-.35,1.89,1.13,1.59-.17.56-.04,1.09-.75,1.49-1.32-.02-7.31-9.5-9.58-10.41-.59-.24-1.54-.23-1.17.67.35.85,6.8,5.98,5.99,6.75-7.4-1.12-9.02-7.81-12-13.5ZM198,80.1v-.74s-.75-.75-.75-.75l.26,1.49h.49Z"/>
  <path class="cls-3" d="M238.5,112.6c-1.35-.29-.96.69-1.24,1.48-.53,1.49-.96,3.04-1.51,4.51l-5.26-12c-2.08.87.37,2.95,0,4.5-1.97.25-3.72-1.26-4.5-3,.04-.86-.18-2.34,0-3,.15-.53,2.49-3.58,3-5,4.1,3.4,7.83,7.45,9.5,12.5Z"/>
  <path class="cls-3" d="M311.5,100.6c1.76-.79,2.91-2.56,5.79-2.96,3.82-.52,8.38.15,12.21.46,1.43,1.41-4.26,5.23-5.35,5.9-2.76,1.68-4.25,2.42-7.65,2.1,1.89-2.44-3.44-1.81-4-3.5h7.25c.26,0,3.65-.79,3.75-1.49-3.45.19-6.77.63-10.27.5-.96-.04-2.01.51-1.73-1Z"/>
  <path class="cls-3" d="M258,31.1l-3.26-1.99-.73,1.12-1,.37-1-2,1.99,10c-.21.27-5.12-4.34-5.99-1.5-1.51-5.82-.31-10.3,1-16,1.03-.94,7.42,6.53,8.1,7.65.51.84.58,1.58.9,2.35Z"/>
  <path class="cls-5" d="M292.5,89.6c1.51.28.96-.76,1-1.72.2-5.73-4.34-7.79.29-13.24,4.2-4.94,4.79,1.19,3.87,4.87-.48,1.91-2.06,3.15-2.15,5.09.55.54,7.67-3.89,4.1,2.35-1.55,2.7-4.19,3.63-7.1,4.15,0-.49.05-1.01,0-1.5Z"/>
  <path class="cls-3" d="M253,106.1c-2.52-2.54-1.23-8.32-2.59-10.66-.66-1.12-2.92-1.67-4.18-2.82-3.25-2.98-3.52-6.86-3.22-11.02,2.85.54,6.12,3.82,7.41,6.34,1.87,3.66,1.4,7.61,2.45,11.57.23.87-.31,1.88,1.14,1.59-.21,1.38-.96,4.09-1,5Z"/>
  <path class="cls-3" d="M259,50.6c.2-5.61,1.44-8.94,5.67-12.83.32-.3,3.38-2.58,3.59-2.67,1.02-.43.7.7.74,1.24.32,4.36.4,7.42-1.5,11.26-.3-1.03-1.5,0-1.96.29-.65.41-3.68,3.09-4.03,2.71.88-2.89,2.7-5.1,3.65-8.1.15-.46.8-1.52-.15-1.4-1.34,2.67-2.64,5.49-4.24,8.01-.48.76-.56,1.54-1.77,1.48Z"/>
  <path class="cls-3" d="M342,86.6c.05-2.21-1.03-2.12-1.5-3-2.68-5,.21-11.81,6.16-11.95,4.03,1.24-1.23,13.79-4.66,14.95Z"/>
  <path class="cls-3" d="M214,61.1c-.82.82-.19,6.57-2.52,5.27-2.91-2.77-2.77-6.58-3.49-10.27-.83-.14-.54,1.22-.52,1.77.05,1.33.39,2.44.52,3.73-.63.69-3.05-2.98-3.28-3.46-1.36-2.87-.64-5.9-2.22-8.53.19-.43-.47-1.26.72-.98,4.27,3.44,8.79,7.18,10.78,12.48Z"/>
  <path class="cls-3" d="M181.5,94.6c-2.28-.24-4.19.05-6.61-.64-1.74-.5-3.48-2.04-5.14-2.36-2.62-.51,3.46,2.57,3.25,3-4.23-.52-9.05-.45-13-1.99,1.79-1.02,3.2-2.31,5.23-3.02,6.55-2.29,12.2-.51,16.27,5.02Z"/>
  <path class="cls-5" d="M275,109.6c-.83.66-1.42,2.51-3,2.5-.26-.2-.84-.31-1-.5-.04-.04-.25-.63-.5-1-3.27-4.83-3.58-8.93-.24-14,3.89,2.95,5.1,8.3,4.74,13Z"/>
  <path class="cls-5" d="M270.5,110.6c-.04.4.44.78.5,1,.08.31.16,1.49-.26,1.51-2.84-.77-6.82-.53-6.24-4.5l6,2Z"/>
  <path class="cls-3" d="M250.5,45.6l-1.24,3.5c-1.58-1.14-2.22-4.09-4.25-4.49-.98,1.04,5.04,7.1,5.49,8.26.25.63-.09.93-.73.73-2.82-.87-3.86-3.13-6.28-4.72l-3.48-5.27c-.13-.99-1.32-4.68.23-4.49,1.94.24,8.23,3.52,9.57,4.96.56.6.51,1.26.7,1.53ZM244.25,43.11c-.49.35.27.69.51.98.5-.33-.23-.66-.51-.98Z"/>
  <path class="cls-3" d="M378,109.6l.95-1.95c-3.88-1.87-7.18-3.33-11.43-4.32-2.12-.5-5.78-.46-7.66-1.25-.57-.24-.32-.95-.37-.98,5.24-2.28,10.36-3.11,15.25.5.72.53,6.15,5.83,6.25,6.26.28,1.22-2.17,1.51-2.99,1.74Z"/>
  <path class="cls-3" d="M277.5,73.1c.02.16,0,.34,0,.5l-.49.25.49.25c-.02.16.03.34,0,.5-.15.18-.34.33-.5.5-2.23,2.44-1.2,5.11-4,6-.07-1.56-.72-3.34-.5-5.5l4.25-5c.6.58.66,1.7.75,2.5Z"/>
  <path class="cls-3" d="M282,69.1c.09-.02.29,1.19.99-.77l.68-.17,1.83,1.95c-.71,6.58-4.95,9.82-10.5,12.5.84-2.42,1.49-4.98,2-7.5.03-.14.47-.35.5-.5.86-.98,4.15-5.41,4.5-5.5Z"/>
  <path class="cls-3" d="M342,145.1l-.26-.5-2.24,1c-.3-.63-1.56-1.27-1.88-2.86-.75-3.66.4-7.81,4.15-9.15,2.31-.02,2.43,6.83,2,8.53-.29,1.13-1.48,2.25-1.76,2.99Z"/>
  <path class="cls-3" d="M313,157.1c.56-.59.84-1.76,1.99-1.5,4.08,5.3,6.47,13.01.51,18,.39-3.09-.69-4.64-1-7.25-.38-3.11.33-6.37-1.5-9.25Z"/>
  <path class="cls-3" d="M343,113.6c3.82-.11,7.27-2.57,10.97.77,2.8,2.53-1.73,4.8-3.97,4.73-.56-.02-6.17-1.7-6.5-2-.08-.08-.98-1.89-1-2-.03-.19.55-1.07.5-1.5Z"/>
  <path class="cls-3" d="M252,67.1l-4-1c-.3.33.66,3.59-.75,2.99-1.39-1.64-3.22-3.13-2.76-5.49-1.04-.2.11,2.03-1.24,1.49-1.52-.6-5.4-4.61-5.76-6.5,7.45,2.43,9.71,1.31,14.5,8.5Z"/>
  <path class="cls-5" d="M198.5,127.6c.04.29.07,1.34,0,1.5-.08.19-2.73,2.4-3.14,2.61-4.08,2.01-8.48-.47-10.86-3.85,4.8-1.56,9.17-1.09,14-.25Z"/>
  <path class="cls-5" d="M175.19,146.9c-.58-.32-1.61-1.55-1.15-2.26,5.02-3.08,10.33-2.94,14.95.71-2.87,1.77-11.02,3.07-13.8,1.55Z"/>
  <path class="cls-3" d="M304,139.1c-.12-1.68-2.07-2.26-2.62-3.63-1.16-2.86-.2-6.62,1.92-8.83l1.25.27c2.11,3.54,3.41,7.26,1.46,11.19-1.2,1.13-1.69.78-2,1Z"/>
  <path class="cls-3" d="M270,87.1c-.66.68-1.4.98-2,1.5-3.67-2.31-5-8.54-2.01-11.78,1.27-.68,3.97,3.11,4.27,4.27.52,1.97.33,4.1-.26,6.02Z"/>
  <path class="cls-3" d="M376.5,165.1c6.83-.24,11.32,4.33,15.88,8.84.33.33.91.23.62,1.16-2.87-.72-8.79-2.37-10.99-4.26-.97-.83-1.13-2.3-2.39-3.22-1.16-.84-2.85-.6-3.12-2.53Z"/>
  <path class="cls-3" d="M328,141.1c.5-.77.16-1.84,1.49-1.5,1.85,6.4,6.84,8.39,4.11,15.86-.27.75-.98,1.31-1.1,1.63-.58-.4-1.08-.73-1.28-1.46-1.28-4.64-1.72-9.94-3.22-14.54Z"/>
  <path class="cls-4" d="M232,81.1c-.79.03-3.81,2.91-4,3.5l-6-1c.69-3.13,2.65-5.58,5.97-6.27,5.03-1.05,3.39.5,4.03,3.78Z"/>
  <path class="cls-5" d="M211.5,132.6c-.98-.29-1.87-.31-2.99-.76-1.91-.76-5.5-2.13-5.51-4.24,0-.44-.16-1.05.09-1.4,2.92-1.94,6.64-.82,8.63,1.93,1.48,2.05,1.56,2.64-.21,4.47Z"/>
  <path class="cls-3" d="M133,113.6c4.68-1.38,9.25-2.14,11.99,2.75-3.63,3.36-10.24,1.99-11.99-2.75Z"/>
  <path class="cls-3" d="M336.5,90.1c-5.25-2.98-3.2-5.29-3-10.5l1.77.48,4.23,5.52c-.98,1.05.37,5.57-3,4.5Z"/>
  <path class="cls-4" d="M321.5,182.1c1.89,3.1-.26,5.15.5,8-3.84-.8-7.52-1.36-11.5-1,3.35-2.77,7.45-4.52,11-7Z"/>
  <path class="cls-3" d="M328.5,164.6c-4.96.21-7.42-6.18-7-10.5,4.69,1.47,7.48,5.56,7,10.5Z"/>
  <path class="cls-5" d="M272.5,75.6c.7-6.92,7.88-7.86,12.26-11.99,1.02-.13.65.04.74.73.18,1.37.15,4.35,0,5.76l-1.83-1.95-.68.17c-.7,1.97-.89.75-.99.77.16-1.56-.34-1.02-1.01-.26-1.25,1.42-1.89,3.24-3.49,4.26-.08-.79-.14-1.92-.75-2.5l-4.25,5Z"/>
  <path class="cls-3" d="M319.5,122.1c-1.11.31-1.82,1.12-3,1-.57-.6,1.92-8.45,2.58-9.67.29-.53,2.25-3.33,2.91-2.83.56,1.64,1.12,2.75,1.51,4.5-1.91-.2-1.21-.03-1.56,1.17-.66,2.24-1.42,3.79-2.44,5.83Z"/>
  <path class="cls-3" d="M278.5,134.1c.32.8.33,1.67.5,2.5-2.21,4.69-1.3,10.42-1.5,15.5-1.11,1.28-2.3-3.88-2.37-4.38-.54-4-.35-9.38,1.93-12.83.51-.77,1.39-.73,1.44-.79Z"/>
  <path class="cls-3" d="M387,161.1c3.79-.16,6.45.32,10,1.5,1.25,2.05-2.73,2.99-4.24,3.03-4.57.12-5.57-2.56-8.26-3.03v-1c.89-.07,1.81-.47,2.5-.5Z"/>
  <path class="cls-3" d="M254.5,116.6l9.6,12.15.89,4.35c-1.63-.77-2.37-2.54-3.52-3.72-.27-.28-.89-.19-.97-.28-2.97-3.24-4.98-8.17-6-12.5Z"/>
  <path class="cls-4" d="M350,119.1c-.09,1.22-1.95,3-2.99,3.3-1.47.43-2.21-.38-3.25-.3-1.17.1-2.85,2.29-4.77,1.49l4.5-6.49c.33.3,5.94,1.98,6.5,2Z"/>
  <path class="cls-3" d="M151,117.6l3.5,1c.36,1.37-1.09,1.22-2,1.5l.99,1.74-.49.5c-2.99,1.44-5.88,1.09-9.01,1.25.85-2.35,4.71-5.27,7-6Z"/>
  <path class="cls-3" d="M237.5,89.6l-3.18-1.92-3.32,2.92c.51-2.93,1.52-6.76,3.5-9,.13-.03.35-.67,1.12-.45,1.88.76,1.17,2.55,1.49,4.08.43,2.07,1,1.6.39,4.36Z"/>
  <path class="cls-5" d="M221.97,52.12c1.25,3.47-.85,8.79-4.97,8.97-.49-3.56.51-9.04,4.97-8.97Z"/>
  <path class="cls-3" d="M266,59.6c4.55-3.89,9.41-3.31,15-4.5.22,2.72-1.48,4.85-2.5,7-.33-2.79-2.86-1.8-1.5-5l-11,2.5Z"/>
  <path class="cls-3" d="M198.5,109.6c2.61,3.32,5.25,5.25,4.48,10.24-.18,1.13-.83,1.37-.98,1.76-1.72-2.06-.76-5.5-2.01-8l-1.23,1.05-2.76-1.05c.26-1.35.99-2.58,1-4,.35.12,1.06-.08,1.5,0Z"/>
  <path class="cls-5" d="M238.5,153.6c-1.27,1.48.71,12.13-2.24,11.5-2.39-3.87-.64-8.35-.76-12.5.26.15,2.36.79,3,1Z"/>
  <path class="cls-3" d="M221,87.1c-.64,1.61,1.89,3.56,1.98,3.87.24.85.33,2.79.51,3.92.15.94-.56,2,1.01,1.71-.07.47.1,1.08,0,1.5-.29,1.25-.97,1.41-1,1.5-3.18-3.77-5.24-6.52-3.39-11.65.18-.51.77-.67.89-.85Z"/>
  <path class="cls-3" d="M326.5,135.6c.91-2.66,7.84-5.25,10.47-5.77.77-.15,4.88-1.07,4.53.77-3.75,1.1-11.91,3.35-15,5Z"/>
  <path class="cls-3" d="M383.5,132.1c-2.42.84-5.08-1.39-7.49-2.26-1.24-.45-2.44-.83-3.51-1.24,4.22-3.15,8.36.03,11,3.5Z"/>
  <path class="cls-1" d="M251.5,112.1l-7-6.25,2.49.51c-1.34-1.96-2.66-3.94-3.99-5.91-.22-.33-.63-.37-.99-.35l.98-.99c-.03,2.05,1.7,2.19,2.77,3.49,1.3,1.58,2.33,3.34,3.49,5.01l.75-2c.59,1.95.88,4.5,1.5,6.5Z"/>
  <path class="cls-3" d="M374,150.1l.5-5c.17-.15.33-.4.5-.5l.5-.5c5.1-2.05,2.89,5.79-1.5,6Z"/>
  <path class="cls-5" d="M323.5,115.1c.48,2.17,1.11,5.53-1.52,6.74-.99.45-1.86.08-2.48.26,1.01-2.05,1.78-3.59,2.44-5.83.35-1.2-.35-1.36,1.56-1.17Z"/>
  <path class="cls-4" d="M342,86.6c-.02.86-.99,3.13-1.47,3.68s-.78.22-1.03.32c-.44.18-1.04.54-1.5.5-.64-.06-1.08-.76-1.5-1,3.37,1.07,2.02-3.45,3-4.5.06-.07.89.22,1.01-.34v-1.66c.46.88,1.54.79,1.49,3Z"/>
  <path class="cls-3" d="M155,149.6l2.74-.53.53,1.05c1.29-.59,2.63-1,2.72.98-.09.03-.23.66-.52.74-2.25.63-4.26.17-6.48-.24-.47-1.37.79-1.64,1-2Z"/>
  <path class="cls-5" d="M224.5,96.6c-1.57.29-.86-.77-1.01-1.71-.18-1.13-.27-3.07-.51-3.92-.09-.3-2.61-2.26-1.98-3.87.1-.15-.07-.7,0-1,1.82,1.95,4,5.45,4.04,8.26.01,1.04-.44,1.58-.54,2.23Z"/>
  <path class="cls-5" d="M176.5,136.1c-.59.33-1.22,1.09-2,1.5-.93-.51-6.16-4.34-5-5.5,2.95-.08,4.27,3.32,7,4Z"/>
  <path class="cls-3" d="M328,128.6c-.14,1.25-2.71,2.4-3.74,3.01-1.81,1.08-3.55,2.19-5.52,2.98-.36-.5.68-1.18,1.02-1.48,1.61-1.43,3.76-2.93,5.24-4.51.36.8,2.2.21,3,0Z"/>
  <path class="cls-5" d="M397,162.6c-3.55-1.18-6.21-1.66-10-1.5-.28-1.21.63-1.1,1.47-1.26,2.87-.53,6.9.06,8.53,2.76Z"/>
  <path class="cls-4" d="M231,97.1c-2.78,1.26-1.48,1.55-2,3s-2.85,4.47-3,5h-1c1.06-2.37,2.11-6.36,4.53-7.74.56-.32,1.28-.16,1.47-.26Z"/>
  <path class="cls-4" d="M274,85.6c2.74-.14.25,5.24-.07,5.43-2.49,1.57-.45-2.12-1.43-2.93.32-.47,1.29-2.06,1.5-2.5Z"/>
  <path class="cls-3" d="M264.5,140.1l2.99,7c-1.32-1.04-3.34-3.36-3.49-5-.11-1.19.49-1.74.5-2Z"/>
  <path class="cls-3" d="M265,60.6c.46,1.7-1.04,1.52-1.62,2.62-1.18,2.2-.15,3.49-.36,5.04-.02.18-2.32,1.65-2.03,2.84h-.99c.61-.81.32-1.8.5-2.5.77-2.98,2.46-5.71,4.5-8Z"/>
  <path class="cls-5" d="M232,81.1c.08.4,0,.84.5,1-.32.2-3.76,3.58-4,4-.57-.04-.62-1.14-.5-1.5.19-.59,3.21-3.47,4-3.5Z"/>
  <path class="cls-3" d="M310.5,44.1c.08-.08-.11-.66.06-.93l1.39-.02c.98,1.73,1.15,3.18,1.56,4.94h-1.5c.05-1.52.04-3.24-1.5-4Z"/>
  <path class="cls-5" d="M374.5,145.1l-.5,5c-.5.02-1,0-1.5,0-.49-.56.58-4.24,1.14-4.88.25-.28.79-.06.86-.13Z"/>
  <path class="cls-4" d="M384.5,161.6v1c-2.71-.48-5.89.71-8.5,0,.31-.27.53-.63,1-1,2.07,1.04,5.12.2,7.5,0Z"/>
  <path class="cls-3" d="M143.5,123.6v1c-.28-.18-2.89-.62,0-1Z"/>
  <path class="cls-3" d="M187.5,148.1c-.33.61-1.36.81-1.5,0,.48-.04,1.09.09,1.5,0Z"/>
  <path class="cls-1" d="M371,149.6l-.51,1-.5-.25,1.01-1.74c-.03.33.05.68,0,1Z"/>
  <path class="cls-3" d="M314,50.6l-.5-1c.01.05.35.18.5,1Z"/>
  <path class="cls-3" d="M134.5,93.6l-1-.5c.62.16.95.49,1,.5Z"/>
  <polygon class="cls-3" points="292 190.6 291.75 191.1 291 190.6 292 190.6"/>
  <path class="cls-3" d="M342.5,130.6l.5-.5s-.14.4-.5.5Z"/>
  <path class="cls-3" d="M253.25,116.6c.32.17.32.33,0,.5v-.5Z"/>
  <path class="cls-3" d="M254.5,115.6c-.04-.16.03-.34,0-.5l.49.25-.49.25Z"/>
  <path class="cls-5" d="M375,144.6c.17-.09.31-.42.5-.5l-.5.5Z"/>
  <path class="cls-4" d="M339.5,92.1v-.5c.03.33,0,.31,0,.5Z"/>
  <path class="cls-3" d="M264.5,139.1c-.02-.09-.42-.27-.5-.5l.5.5Z"/>
  <path class="cls-3" d="M253,68.6l-.5-.5c.09.16.41.3.5.5Z"/>
  <path class="cls-3" d="M325,136.6l.5-.5c-.16.1-.33.34-.5.5Z"/>
  <path class="cls-5" d="M186.5,418.6c-4.83-1.44-9.57-3.09-14.49-4.26-5.61-1.33-12.82-2.86-18.51-3.24,10.43-13.89,23.03-26.18,37-36.5,1.48.19,3.2-.41,4.48.77,5.55,5.8,12.27,10.42,18.03,15.97,1.48,1.42,3.01,2.3,1.18,4.19-1.69,1.74-7.39,6.13-9.52,7.48-7.91,4.98-14.5,5.18-18.16,15.59ZM188.87,394.18c-1.88.3-10.75,4.81-10.37,6.66,2.24,1.4,6.93,1.11,9.16-.33s4.56-6.86,1.2-6.33Z"/>
  <path class="cls-3" d="M202.5,257.6c3.03-1.97,6.44-4.02,9.47-6.28,7.09-5.3,13.02-11.8,22.53-12.22,0,.67.13,1.38-.24,2-.29.48-7.74,4.95-9.26,6.24-3.09,2.62-6.06,6.19-8.75,9.25l-.75-1.75c-5.47,4.58-4.43,15.12-11.99,16.75.53-2.62,2.3-4.53,2.97-7.28.72-2.92-3.28,2.34-3.48,2.53-1.89,1.82-5.11,3.75-6.11,6.39-.7,1.88.08,4.49-.84,5.66-.42.53-1.95.9-2.83,1.67-1.78,1.55-2.89,4.56-4.97,6.03-2.83-5.2,2.82-9.99,4.84-14.16.53-1.09.65-2.85.91-3.34,1.59-2.93,5.85-9.78,8.5-11.5Z"/>
  <path class="cls-1" d="M111,226.6c8.08,1.3,19.56,4.31,20.29,14.02-10,2.57-18.89-4.08-20.29-14.02Z"/>
  <path class="cls-3" d="M182.5,263.6c-.61.53-.3,1.56-1.21.46-1.74-2.1-3.41-4.54-6.28-5.22,1.19,1.03,1.87,3.61,2.66,4.59,1.44,1.79,5.27,3.77,5.83,6.67-3.77-1.6-8.08-2.01-9.95-6.3-1.03-2.37-1.63-8.27-.67-10.58.58-1.39,3.02.71,3.86,1.39,2.56,2.1,5.68,5.88,5.76,8.99Z"/>
  <path class="cls-1" d="M151.5,278.1c-.69,7.07-6.65,10.73-13.5,10-.11-6.99,7.4-10.3,13.5-10Z"/>
  <path class="cls-5" d="M176,221.1c1.1-.01,1.46-.1,2,1,.54,5.64,5.58,15.4,9,20,.09.77-.62,3.92-2.02,2.77-.15-.13-1.97-3.13-2.09-3.41-.91-2.14-1.5-9.67-5.06-8.89-.55.12-.94,2.47-2.33,2.03-.11-4.54.36-9.07-.5-13.5.33,0,.67,0,1,0Z"/>
  <path class="cls-1" d="M145,333.1c.83,1.88,1.3,1.33.66,3.91-1.1,4.4-4,6.21-8.43,5.61-2.9-.39-2.24-3.44-1.23-5.52,1.22-2.49,6.2-4.72,9-4Z"/>
  <path class="cls-1" d="M106.5,371.6c4.17-.37,7.59.3,10.97,2.78l5.03,4.22c-4.77,1.69-12.07-.94-15.24-5.03-.57-.73-.5-1.49-.76-1.97Z"/>
  <path class="cls-3" d="M184.5,263.1c.51-3.76,2.04-6.99,5.99-8,1.95,5.28.91,10.54-4.49,13,.1-.66,0-1.21.23-1.99.29-.92,2.65-4.54,2.26-5-.94-1.14-2.04,3.51-2.75,3.5l-1.25-1.5Z"/>
  <path class="cls-3" d="M106.5,371.6c-.36-.65-2.01-1.39-1.5-3,4.14.21,11.67.47,14.7,3.55,1.68,1.7,2.18,4.47,3.8,6.2.02.5-.71.15-1,.25l-5.03-4.22c-3.37-2.48-6.79-3.15-10.97-2.78Z"/>
  <path class="cls-5" d="M136,337.1c-.99-.15-2.83-3.54-2.5-3.99,2.39.31,7.6-3.23,9.18-3.03.36.04.32.8.67,1.03.45.31,1.34.29,1.57.59.3.38-.03,1.15.08,1.41-2.8-.72-7.78,1.51-9,4Z"/>
  <path class="cls-3" d="M173,334.1c0-.07-.56-.51-.53-1.21.12-2.58.98-5.49.53-8.29,4.53.08,1.1,7.18,0,9.5Z"/>
  <path class="cls-4" d="M213.5,329.1c-.32-.68-1.09-1.2-1.85-1.38-4.5-1.09-10.48-.88-15.13-1.14-.25-2.5-1.21-5.42-.06-7.76.71-.5,15.02,1.13,17.29,1.28,6.47.42,13.03.44,19.49,1.01,10.07.89,20.15,2.36,30.14,3.86,2.16,1.01,1.51,6.51,1.61,8.64-11.62-.03-23.15-.95-34.61-2.65-3.29-.49-8.52-2.29-11.4-2.35-1.61-.04-3.66.94-5.5.5Z"/>
  <path class="cls-4" d="M204.5,301.6l53.92,10.33c1.51-.17,4.41,5.87,4.08,6.16-9.43-.51-19.33-.4-28.68-1.56-10.88-1.35-21.87-4.73-32.81-5.94.38-3.08,2.24-6.06,3.5-9Z"/>
  <path class="cls-4" d="M242,213.1c.86,3.6,4.98,5.84,6,9.5-3.28.93-7.69,1.2-11.26,1.49-8.31.68-16.68.71-24.99,1.51-3.33.32-14.52,2.74-16.75,1.74-.85-.38-3.87-5.77-3.95-6.58-.08-.93.57-.93,1.19-1.16,2.56-.96,8.55-1.5,11.57-1.93,12.45-1.76,25.67-3.34,38.18-4.57Z"/>
  <path class="cls-4" d="M214,336.1c.99.07,2.01-.07,3,0,11.79.78,23.43,1.36,35.19,2.56,1.18.12,2.97.9,3.81.94v.5c-2.8.37-9.52,4.12-10,7-1.57-.07-3.17.11-4.75,0-8.17-.61-18.36-1.75-26.44-3.06-1.78-.29-6.45-1.99-7.07-1.99-1.08,0-2.19,1.34-2.71,1.02-.04-.03,0-.67-.4-.96-3.03-2.16-5.59-3-6.13-7.51.75-.67,13.36,1.35,15.5,1.5Z"/>
  <path class="cls-4" d="M230,200.1c1.48,3.43,4.82,5.61,7,8.5-12.1,1.15-24.09,1.83-36.24,2.51-2.53.14-10.06,1.46-11.91.9-2.08-.64-2.89-5.97-.47-6.77,13.82-2.03,27.73-3.6,41.62-5.13Z"/>
  <path class="cls-6" d="M252.5,365.6c-.05,2.18,2.02,2.16-1.79,2.96l-.21,2.54c-1.4.9-2.24-2.52-3.5-1.5-1.04.85,1.14.81,1.02,1.72-.17,1.34-1.65,2.16-1.54,3.49.1,1.2,1.82,2.47,1.53,4.52-.11.78-3.43,4.05.11,3.69,3.69-.38,6.08-7.29,10.88-4.92v1.5c.51.47,3.82-1.52,4.5-2h2.5c-.48,1.54-.54,2.9-.5,4.5-.3.06-.77-.09-1,0-1.25.5-3.07,2.9-4,4-.17.16-.32.34-.5.5-2.14-.25-2.76,2.17-4,3.5-.11.08-.39-.08-.5,0-3.97,2.88-3.61,3.6-6.35,6.51-1.63,1.73-4.05,2.63-5.99,3.92-1.84.3-2.18-4.69-2.16-5.93.71-1.15,3.13-6.18,3.38-7.37.2-.93-.01-3.43.12-3.63.03-.04.87.2,1.01-.33.2-.75-.11-1.84-.01-2.67-1.37-.35-1.56,1.64-2,2.5-1.8,3.58-2.34,4.88-5,8-1.12.23-2.29-2.15-2.5-3-.06-.26,0-.68,0-1h.5c.83-2.4,4.57-1.1,4.97-1.53.13-.13-.05-1.1.16-1.56,1.34-2.94,1.91-2.11-.14-5.41.14-.22.29-.64.5-1,.04-.07.35-.14.5-.5.06-.14-.04-.35,0-.5,1.21-.18,2.63-2.43,2.5-3.5-.06-.5.02-.91-.49-1.24-.86-.57-5.98-1.76-7.51-2.26-.2-1.73.54-.71,1.39-.65,3.16.2,6.17-.26,9.29-.82l.36-1.99c.78.21,1.54-.47,1.96-.54.74-.13,1.71.09,2.5,0ZM260.5,381.6l-1.76.49-.24,1.51,1.76-.49.24-1.51Z"/>
  <path class="cls-4" d="M216,287.1c3.4,1.67,7.01,2.98,10.62,4.13,5.99,1.91,19.64,4.06,23.65,7.85.61.58,3.83,4.44,3.23,5.02-7.93-.91-16.35-1.74-24.1-3.64-6.66-1.64-13.1-4.93-19.9-5.85.2-.25.31-1.41.99-2.25,1.26-1.53,4.76-4.08,5.51-5.25Z"/>
  <path class="cls-4" d="M242.5,228.1c-5.99,5.9-14.1,10.76-22.29,12.96-3.83,1.03-8.12,1.09-11.57,2.95-.59.09-6.37-6.17-6.57-6.75-.13-.38-.11-.77-.07-1.16,13.23-3.63,26.83-6.42,40.5-8Z"/>
  <path class="cls-5" d="M211,425.1v4.5c.86-1.23,2.51-3.22,3.55-4.19.36-.33,2.09-1.66,2.44-1.3-.53,1.5-.53,3.61-1,5-.04.11-.72,1.38-1,2-6.96,15.67-24.13,6.14-33,20-1.49-.77-1.31-2.97-1.5-4.5,2.7-4.82,6.33-9.7,12.31-10.44,1.64-.2,3.34.13,4.94-.06,5.79-.69,11.48-3.9,11.26-10.49.66-.26,1.24-.58,2-.5Z"/>
  <path class="cls-5" d="M245,267.6c.76.55,1.96,2.43,2.99,3.26,2.46,1.97,5.04,3.79,7.51,5.74,2.94,5.54,7.65,9.68,10.5,15.5.22.45.18,1.76.5,2.5l-4.5,1c-4.14-4.11-6.94-8.7-10.74-13.01-4.75-5.39-8.74-9.2-13.26-14.99,2.58-.49,4.63-1.73,7,0Z"/>
  <path class="cls-5" d="M252.5,365.6c-.79.09-1.76-.13-2.5,0-10.21-2.07-20.95-3.34-30.5-7.5l.74-.49,21.26-2.51,14.77,2.98c1.04,1.32-3.73,5.6-3.77,7.52Z"/>
  <path class="cls-5" d="M195.5,311.6c.6-.88,1.19-2.92,1.75-3.99-3.09,2.82-6.74,4.51-9.25,7.99-.13-3.15,1.13-5.82,3.01-8.24,6.17-7.95,17.23-17.54,24.92-24.08l2.07-.68c-1.12,1.05-1.44,3.62-2,4.49-.75,1.17-4.25,3.72-5.51,5.25-.69.84-.79,2-.99,2.25-2.49,3.12-3.26,2.93-5,7-1.26,2.94-3.12,5.92-3.5,9-1.59-.02-1.86,1.5-2.68,2.33-.23.23-.76.11-.82.17-1.17.14-2.05-.21-2-1.5Z"/>
  <path class="cls-5" d="M240,373.6c1.56.26,2.52-.79,3,1.5-.04.05.14.33-.5,1-2.17,2.27-3.22,4.07-4.5,7.5-.05.15.05.35,0,.5l-.91.1c-.12,1.63-1.1,1.09-1.09,2.9,0,.32-.06.74,0,1-.3.2-.74.3-1,.5l-.5.5c-.14.21-.27.64-.5,1l-2.5,3c-.36.21-.72.34-1,.5-2.05,1.2-2.32,1.11-4,3-1.55,1.75-5.85,8.4-8.47,7.26-.22-.09-2.71-2.09-2.79-2.25-1-2.01.27-2.21.76-3.01l.5-.5c2.08-3,3.76-4.55,6.5-7l1.46-.05.04-.95c.27-.23.58-.63,1-1l.5-.5c.44-.39,1.05-.62,1.5-1l.5-.5c.81-.68,1.71-1.31,2.5-2,1.4-.22,2.79-1.61,3-3,.17-.16.33-.34.5-.5.32-.31,1.97-.04,1.5-2,.28-.25.6-.65,1-1,1.18-1.05,3.68-2.1,3.5-4.5v-.5Z"/>
  <path class="cls-3" d="M331.5,197.6c1.56.56,3.04.53,4.77,1.48,6.3,3.49,6.78,12.62,7.23,19.01-8.55-3.25-16.55-9.23-15-19.5.13.1,1.02-.13,1.47.26,2.69,2.34,3.27,4.07,3.04,7.74,2.06-.79.11-2.7.74-4l5.01,5.49c-.69-4.53-5.34-6.71-7.25-10.49ZM339.25,208.6v.5c.32-.17.32-.33,0-.5Z"/>
  <path class="cls-4" d="M241.5,355.1l-21.26,2.51-.74.49c-4.93-.43-9.99-3.73-10.5-9l32.5,6Z"/>
  <path class="cls-3" d="M186.5,363.6c-2.26-.01-2.94.08-5.5-.5-.67-1.66-.3-6.96-3-6.5.09-3.65-2.95-5.66-3-9.5.54-4.46,1.37-9.94,2.5-14.25.18-.69-.01-1.56.99-1.75.04,3.6-.63,5.95.25,9.5.99,4.01,2.87,9.79,4.24,13.76,1.07,3.1,3.12,5.93,3.51,9.24Z"/>
  <path class="cls-3" d="M256,340.1c.46-.06,3.05-.37,2.5.74l-7.5,5.75c1.73.36,4.18,1.6,5.81,1.86.4.06,2.45.1,3.19.14l2.5,4.28-.83,1.16c-2.72-.44-13.5-1.76-15.18-3.17-.69-.58-.65-2.83-.49-3.76.48-2.88,7.2-6.63,10-7Z"/>
  <path class="cls-3" d="M258.5,272.1c-1.95-9.99,5.35-11.73,13.5-12.5-1.88,6.36-3.45,12.7-11,14-1.21-3.37,4.61-5.73,5.26-8.99-3.72.95-5.12,6.53-7.76,7.49ZM267.25,264.1v.5c.32-.17.32-.33,0-.5Z"/>
  <path class="cls-3" d="M238,408.6c-1.42,2.47-1.28,1.83-3.02,3.73-1.13,1.23-2.62,3.83.02,4.27-2.94,2.17-5.56,3-7.69,6.06-.48.68-.52,1.71-1.06,2.44-1.12,1.52-3.88,2.38-4.5,5-1.34-3.12-4.56,1.61-6.75,1,.28-.62.96-1.89,1-2,5.79-6.1,11.37-12.48,17.76-17.99,1.1-.94,2.72-2.52,4.24-2.51Z"/>
  <path class="cls-3" d="M226,280.1c.53-.22.38-1.41,2.64-.91,1.56.35,1.5,1.46,2.23,1.92,1.27.8,5.94,3.46,7.11,3.75,2.86.72,9.36-.83,7.91,3.89-.64,2.1-4.4,2.01-6.17,1.87-3.37-.27-7.34-2.66-9.73-5.02-1.61-1.59-2.83-3.57-4-5.5Z"/>
  <path class="cls-3" d="M284,344.6c-.14,1.27-.16,3.22,0,4.5-3.54,4.89-7.88,6.85-11.77,10.48-1.39,1.3-6.65,9.48-6.26,2.78.26-4.53,5.88-4.7,8.26-7.29,2.47-2.69,3.75-7.21,5.78-10.26l4-.22Z"/>
  <path class="cls-5" d="M264,341.1c0,1.55-.31,5.91-1.24,7.01-.62.72-1.92.54-2.76.49-.74-.04-2.79-.08-3.19-.14-1.63-.26-4.08-1.5-5.81-1.86l7.5-5.75c.55-1.11-2.04-.81-2.5-.74v-.5c2.2.09,6.72-2.61,8.5-4,.38,1.46-.88,2.64-1.01,3.82-.12,1.03.51,1.59.51,1.68Z"/>
  <path class="cls-3" d="M244.5,383.6c-.13.2.08,2.7-.12,3.63-.25,1.19-2.67,6.22-3.38,7.37-1.97,3.18-6.94,8.98-11,6.24-.43-2.11,6.67-7.03,8.03-8.48.39-.42.35-1.12.47-1.26,2.66-3.12,3.2-4.42,5-8l1,.5Z"/>
  <path class="cls-3" d="M237,369.6c1.53.5,6.65,1.69,7.51,2.26.51.33.43.74.49,1.24-.71.59-1.37,1.32-2,2-.48-2.29-1.44-1.24-3-1.5-3.96-.67-2.93.01-5.79.49-4.05.68-7.73-5.62-10.21-8.25-.11-.36.38-.3.75-.25,3.04.46,8.96,2.93,12.25,4Z"/>
  <path class="cls-5" d="M181,363.1c2.56.58,3.24.49,5.5.5,2.04.01,5.68,5.63,7,7.25-1.17.88-2.61-.59-3.77-.73-6.13-.71-10.71,1.59-10.72-7.53.7,0,1.33.35,2,.5Z"/>
  <path class="cls-3" d="M259,378.1c4.82-5.92,10.57-10.61,16.76-14.99.69-.16.94.03.73.73-.33,1.13-2.38,3.75-3.24,4.77-2.1,2.51-7.1,7.14-9.76,8.99-.68.47-3.99,2.47-4.5,2v-1.5Z"/>
  <path class="cls-3" d="M264.5,335.6c.68-.53,2.44-2.12,3-2.75,1.11-1.25,3.47-5.91,4.26-6.24.96-.4.71.61.87,1.1,2.18,6.6-3.71,10.38-8.63,13.4,0-.09-.63-.64-.51-1.68.14-1.18,1.4-2.36,1.01-3.82Z"/>
  <path class="cls-3" d="M272.49,207.59c-.86.1-.55-1.73-.51-2.26.51-7.42.84-15.02,1.58-22.42.06-.57.23-2.75.93-2.81,1.69,9.29,2.34,18.81-2,27.49Z"/>
  <path class="cls-3" d="M177.5,302.6c.24.7.8,1.1.96,2.29.77,5.78-1.18,12.86-1.46,18.72h-1.49c.75-4.2-1.1-9.08-1-13,.06-2.37,1.47-6.12,3-8Z"/>
  <path class="cls-5" d="M222.5,408.1c.3.27-1.11,2.79-1.41,3.33-.77,1.36-5.81,8.26-7.61,6.94-2.09-6.38,2.75-10.9,9.02-10.27Z"/>
  <path class="cls-3" d="M209,425.6c-2.56,1-4.13,3.74-6.26,5.5l-.77-2.47c-3.87.35-3.97-2.7-1.46-4.78,4.14,1.08,7.09-1.08,10.98-1.74l-.5,3c-.76-.08-1.34.24-2,.5Z"/>
  <path class="cls-3" d="M202.5,409.1l-12.99,16.99c-.26-7.85,5.71-14.84,12.99-16.99Z"/>
  <path class="cls-3" d="M246.5,147.1c-4.63-.4-9.69-1.19-12.99-4.76l.99-1.74c4.74.29,10.8,1.1,12,6.5Z"/>
  <path class="cls-3" d="M193.99,344.1c-.82-.37-1.56-2.05-1.88-2.86-2.71-6.76-1.88-12.47,1.64-18.64l.24,21.5Z"/>
  <path class="cls-3" d="M277,215.1c-.64-.73,2.54-7.33,3.37-8.37s1.9-1.46,2.63-2.37c1.69-2.12,2.75-4.93,5.25-6.24-1.64,5.21-4.35,10.41-8,14.5-.39.44-2.76,3.05-3.25,2.49Z"/>
  <path class="cls-5" d="M194.5,362.59c-.51.55-3.09-2.28-3.51-2.73-3.48-3.79-6.06-9.25-6.98-14.26l7.4,9.85,3.1,7.15Z"/>
  <path class="cls-4" d="M255.5,276.6c4.46,3.53,7.72,5.28,10.44,10.81.39.79,3.08,6.8.06,4.69-2.85-5.82-7.56-9.96-10.5-15.5Z"/>
  <path class="cls-5" d="M280.5,239.1c-1.14,2.14,1.46,12.87-1.26,13.5-.96.08-1.01-.59-1.22-1.28-.52-1.73-.91-8.6-.53-10.22s2.24-1.53,3-2Z"/>
  <path class="cls-3" d="M197.5,313.1c-1.45,1.46-2.91,3.18-4.52,4.73-.58.56-3.25,4.54-3.98,3.76.03-1.7,1.1-3.38,1.99-4.76,1.25-1.96,3.41-3.6,4.51-5.24-.05,1.29.83,1.64,2,1.5Z"/>
  <path class="cls-3" d="M278,219.1c-1.27,5.15-5.84,8.96-10.49,11-.22-.94.53-1.18,1-1.75,1.83-2.22,4.91-5.38,6.99-7.51.39-.4,2.03-2.27,2.51-1.73Z"/>
  <path class="cls-3" d="M219,328.6c-2.34,1.36-1.46,5.06-2,7.5-.99-.07-2.01.07-3,0-.18-2.29.49-4.9-.5-7,1.84.44,3.89-.54,5.5-.5Z"/>
  <path class="cls-5" d="M284,344.6c.28-2.47,1.14-4.96,1-7.5,1.14-.22.8.07,1.12.64,2.2,3.94.25,8.09-2.12,11.36-.16-1.28-.14-3.23,0-4.5Z"/>
  <path class="cls-3" d="M266.5,294.6c.76,1.76,2.97,2.96,1.99,6-2.98-.98-4.46-2.98-6.49-5l4.5-1Z"/>
  <path class="cls-3" d="M210.5,404.1c-.12,1.74-2.27,2.36-2.77,3.97-.62,1.96.78,5.36-1.72,5.53-2.38-5.01-.38-7.8,4.49-9.5Z"/>
  <path class="cls-5" d="M178,356.6c-.02,1.02-.48,1.98-.51,3-.69-.06-.8-.72-1.02-1.23-1.63-3.82-1.95-7.37-1.48-11.27.05,3.84,3.09,5.85,3,9.5Z"/>
  <path class="cls-5" d="M226,280.1c1.17,1.93,2.39,3.91,4,5.5l-7.5-2.51c-.35-2.4,2.08-2.4,3.5-2.99Z"/>
  <path class="cls-4" d="M177.5,302.6c-1.53,1.88-2.94,5.63-3,8-2.32-3.23-.24-7.98,2.25-10.5.69.53.52,1.82.75,2.5Z"/>
  <path class="cls-3" d="M159.5,138.09l-5.5-.74c-.98-.49-1.52-2.69-1.49-3.75,3.31.13,5.14,1.95,7,4.49Z"/>
  <path class="cls-3" d="M176,221.1c-.08-2.1.4-4.61,1.27-6.51.35-.76-.06-1.23,1.23-.99-.36,2.79-.77,5.67-.5,8.5-.54-1.1-.9-1.01-2-1Z"/>
  <path class="cls-3" d="M198.5,417.6l1,5.5c-1.66,1.65-4.27-5.58-1-5.5Z"/>
  <path class="cls-5" d="M189,276.6l-3.99,6c-.9-1.53,3.07-6.9,3.99-6Z"/>
  <path class="cls-3" d="M236.5,378.6c.63-1.71,1.99-3.52,3.5-4.5.18,2.4-2.32,3.45-3.5,4.5Z"/>
  <path class="cls-3" d="M234,381.6c-.05-1.23.83-1.42,1.5-2,.47,1.96-1.18,1.69-1.5,2Z"/>
  <path class="cls-3" d="M231.5,393.1l2.5-3c-1.18,1.86.13,1.44-2.5,3Z"/>
  <path class="cls-3" d="M224.5,390.1l-.04.95-1.46.05c.73-.66,1.32-.84,1.5-1Z"/>
  <path class="cls-3" d="M249,147.1h-1.5c.26.01-.07-.44,1.5,0Z"/>
  <path class="cls-3" d="M226.5,396.6c1.68-1.89,1.95-1.8,4-3l-4,3Z"/>
  <path class="cls-3" d="M230.5,385.1c1.17-1.02,1.96-2,3-3-.21,1.39-1.6,2.78-3,3Z"/>
  <path class="cls-3" d="M234.5,389.1l.5-.5c-.13.11-.42.38-.5.5Z"/>
  <path class="cls-3" d="M215.75,257.1c.32.17.32.33,0,.5v-.5Z"/>
  <path class="cls-3" d="M238,267.6c-.06-.07-.77.13-.91-.06-.87-1.1,2.86-3.89,2.67-5.43-4.99,3.55-9.1,9.56-14.42,12.57-5.77,3.27-13.05,3.81-18.57,7.93-1.06.79-6.29,6.44-7.26,5.49,1.04-4.53,6.45-9.04,10.49-11.26,4.59-2.51,9.53-2.69,13.98-5.02,2.58-1.36,14.85-11.72,16.54-13.96.3-.39,1.01-.86.24-1.26l-16,5c1.37-3.24,5.59-5.36,8.76-6.73,3.81-1.64,9.32-2.73,12.84-4.66,2.7-1.48,3.63-2.41,6.99-4.01,1.62-.77,4.51-2.67,5.92-3.09.72-.21.87.06.75.75-.24,1.31-2.57,2.83-3.52,4.01-.66.82-.9,2.12-.99,2.24-2.13,2.85-11.81,7.44-12.75,9.52-.06.14-.36,2.88-.24,2.97.13.11,1-.19,1.36.11.3.25,1.64,3.65,1.63,4.4,0,.24-.24.48-.5.5-2.37-1.73-4.42-.49-7,0ZM242.25,256.1v.5c.32-.17.32-.33,0-.5Z"/>
  <path class="cls-3" d="M355.75,185.1c.32.17.32.33,0,.5v-.5Z"/>
  <path class="cls-3" d="M216,398.6c.11-.19.38-.32.5-.5l-.5.5Z"/>
  <path class="cls-3" d="M340.25,113.6c.32.17.32.33,0,.5v-.5Z"/>
  <path class="cls-3" d="M367.5,138.6c.13-.1.41-2.09,2.5-1.5.38,2.74,1.45,6.05,1.52,8.78.03,1.31-.46,2-.52,2.72l-1.01,1.74.5.25.51-1c-.61,4.11-1.45,8.16-6.5,8.5,1.27-2.61,4.51-5.11,5-6.26,1.08-2.53-4.05,2.61-4.48,2.01l2.48-5.52-.99.26c-.46-.61,3.36-8.72,1-10Z"/>
  <path class="cls-3" d="M163,56.1c-2.05.92.09,4.26-.24,5.99-2.34-.88-3.57-4.76-6.25-3.74,2.31,3.13,5.7,4.67,8,7.75-3.63-.81-7.43-1.48-11-2.49s-7.95-10.25-8-14c5.12.52,12.7,1.76,16.77,4.99.63.5.62,1.4.72,1.5Z"/>
  <path class="cls-3" d="M258.99,218.6c-2.22,6.07-7.18,11.57-12.25,15.49l-.25-3.21,12.5-12.28Z"/>
  <path class="cls-2" d="M303.75,97.6c.32.17.32.33,0,.5v-.5Z"/>
  <path class="cls-5" d="M194.75,363.1c.32.17.32.33,0,.5v-.5Z"/>
  <path class="cls-3" d="M351.5,79.6c1.52-1.63,3.01-3.97,5.5-4,2.18,8.99,2.92,17.6-5.5,23.5.12-1.64-.28-3.56.12-5.13s2.43-2.59,2.88-4.12c-1.5-1.01-1.78,2.16-2.99,2,.44-2.11,1.38-4.94,1.49-7.02.05-1-.09-.78-1-.74-.55,2.28-1.12,4.41-1.53,6.74-.15.89.54,1.49-.98,1.26l2-12.5ZM353.75,82.1v.5c.32-.17.32-.33,0-.5ZM353.25,83.1v.5c.32-.17.32-.33,0-.5ZM355.49,89.1l.5-1.99-1.48,1.01v.99s.98,0,.98,0Z"/>
  <path class="cls-3" d="M362.5,90.1c.43-1.46.28-3.26.63-4.62,3.12-12.29,16.1-13.89,26.62-16.38l-.25.51-15.26,11.49,1.01-4.49c-3.08,5.45-7.09,10.56-12.75,13.5Z"/>
  <path class="cls-3" d="M260.75,242.6c.32.17.32.33,0,.5v-.5Z"/>
  <path class="cls-3" d="M219.75,76.1c.32.17.32.33,0,.5v-.5Z"/>
  <path class="cls-3" d="M227.5,387.6c.18-.15.32-.35.5-.5l-.5.5Z"/>
  <path class="cls-3" d="M225.5,389.1c.18-.15.32-.35.5-.5l-.5.5Z"/>
  <path class="cls-1" d="M352.5,268.1c.15-.05.35.05.5,0s.35.04.5,0c.86,7.79-3.96,13.16-11.5,14-.66-.66,1.73-8.4,2.5-9.5,1.25-1.79,5.86-3.86,8-4.5Z"/>
  <path class="cls-1" d="M335,310.6c-.94,1.79-.97,3.38-2.73,5.02s-2.98,1.36-4.73,2.27c-.72.37-1.27,1.48-1.79,1.71-1.52.68.13-3.64.26-4,2.4.5,2.61-1.49,4.13-2.62.91-.68,2.04-1.34,3.02-1.98.44-.28,1.54-1.49,1.85-.4Z"/>
  <path class="cls-3" d="M326,315.6c1.89-5.25,5.05-6.91,10.5-7.5.39,1.23-1.24,2.01-1.5,2.5-.31-1.09-1.42.11-1.85.4-.98.63-2.11,1.29-3.02,1.98-1.51,1.14-1.72,3.12-4.13,2.62Z"/>
  <path class="cls-3" d="M279,386.1c.61,1.8-1.03,3.89-2.86,4.4-.91.25-1.92.52-1.64-.9,1.29-1.34,2.54-3,4.5-3.5Z"/>
  <path class="cls-1" d="M260,386.6c-1.42,1.27-2.35,2.3-4,3.5,1.24-1.33,1.86-3.75,4-3.5Z"/>
  <path class="cls-1" d="M260.5,386.1c.93-1.1,2.75-3.5,4-4-.99,1.67-2.64,2.71-4,4Z"/>
  <path class="cls-3" d="M253.5,440.6l-1.04,4.71,2.04,1.79c-4.71.16-9.59,2.17-14.26,2.49-2.8.19-5.85-.67-2.27-2.77,2.65-1.55,7.02-2.22,10.01-3.49,1.91-.81,3.52-1.88,5.51-2.74Z"/>
  <path class="cls-3" d="M254,431.6c-1.95-5.33,10.75-7.78,8.64-2.65-1.11,2.71-6.17,2.77-8.64,2.65Z"/>
  <path class="cls-3" d="M210.5,451.1c.95.04,2.64-.54,2.5.74-.3,2.67-1.8,1.64-3,2.26l.5-3Z"/>
  <path class="cls-3" d="M270,411.6c.16-.17.32-.34.5-.5-.11.2-.32.36-.5.5Z"/>
  <path class="cls-1" d="M377.75,335.1c.32.17.32.33,0,.5v-.5Z"/>
  <path class="cls-1" d="M336.75,413.1c.32.17.32.33,0,.5v-.5Z"/>
  <path class="cls-5" d="M347.88,259.22c.29,1.19,1.57,1.15,2.62,1.38-.6,5.53-7.77,4.91-12,4.99,1.5-3.35,4.84-5.61,8.39-6.42l.99.04Z"/>
  <path class="cls-1" d="M398,236.1c-1.46,3.61-6.71,6.07-10.5,5.5l-.21-2.04c3.06-2.36,4.75-2.73,8.41-3.51.67-.14,1.86-.88,2.3.05Z"/>
  <path class="cls-3" d="M387.5,241.6c-3.35-.5-.11-4.44,1.65-5.6,2.76-1.8,6.17-2.52,9.34-1.4.31.79-.35,1.13-.5,1.5-.44-.94-1.63-.2-2.3-.05-3.65.78-5.35,1.16-8.41,3.51l.21,2.04Z"/>
  <path class="cls-5" d="M353,268.1c-.15.05-.35-.05-.5,0l.25-.49.25.49Z"/>
  <path class="cls-1" d="M355.75,204.1c.32.17.32.33,0,.5v-.5Z"/>
  <path class="cls-1" d="M169.25,110.11c.28.32,1.01.65.51.98-.24-.29-1-.63-.51-.98Z"/>
  <polygon class="cls-1" points="224.5 68.1 223.5 68.1 223.5 67.35 224.75 66.11 224.5 68.1"/>
  <polygon class="cls-1" points="355.49 89.1 354.5 89.1 354.51 88.11 356 87.1 355.49 89.1"/>
  <path class="cls-1" d="M353.25,83.1c.32.17.32.33,0,.5v-.5Z"/>
  <path class="cls-1" d="M353.75,82.1c.32.17.32.33,0,.5v-.5Z"/>
  <polygon class="cls-1" points="343.5 180.6 343.49 181.59 342 182.59 342.51 180.6 343.5 180.6"/>
  <polygon class="cls-1" points="198 80.1 197.51 80.1 197.25 78.61 198 79.36 198 80.1"/>
  <path class="cls-1" d="M244.25,43.11c.28.32,1.01.65.51.98-.24-.29-1-.63-.51-.98Z"/>
  <path class="cls-5" d="M277.5,74.1l-.49-.25.49-.25c0,.17.02.34,0,.5Z"/>
  <path class="cls-3" d="M188.87,394.18c3.35-.53,1.02,4.89-1.2,6.33s-6.92,1.73-9.16.33c-.39-1.85,8.49-6.36,10.37-6.66Z"/>
  <path class="cls-1" d="M241.5,378.6c2.05,3.3,1.47,2.47.14,5.41-.21.46-.03,1.43-.16,1.56-.41.42-4.15-.88-4.97,1.53.57-1.05,1.09-1.84,1.5-3,.05-.15-.05-.35,0-.5,1.26-1.41,2.47-3.38,3.5-5Z"/>
  <path class="cls-1" d="M243.5,383.1c.43-.86.63-2.85,2-2.5-.1.83.21,1.92.01,2.67-.14.53-.98.28-1.01.33l-1-.5Z"/>
  <polygon class="cls-1" points="260.5 381.6 260.26 383.11 258.5 383.6 258.74 382.09 260.5 381.6"/>
  <path class="cls-1" d="M245,373.1c.13,1.07-1.29,3.32-2.5,3.5v-.5c.64-.67.46-.95.5-1,.63-.68,1.29-1.41,2-2Z"/>
  <path class="cls-3" d="M238,384.1c-.41,1.16-.93,1.95-1.5,3h-.5c-.02-1.81.97-1.27,1.09-2.9l.91-.1Z"/>
  <path class="cls-3" d="M242.5,376.1v.5c-.04.15.06.36,0,.5l-.5.5c-.21.36-.36.78-.5,1-1.03,1.62-2.24,3.59-3.5,5,1.28-3.43,2.33-5.23,4.5-7.5Z"/>
  <path class="cls-1" d="M242,377.6l.5-.5c-.15.36-.46.43-.5.5Z"/>
  <path class="cls-1" d="M242.25,256.1c.32.17.32.33,0,.5v-.5Z"/>
  <path class="cls-1" d="M339.25,208.6c.32.17.32.33,0,.5v-.5Z"/>
  <path class="cls-1" d="M267.25,264.1c.32.17.32.33,0,.5v-.5Z"/>
</svg>
